<svg xmlns="http://www.w3.org/2000/svg" width="1024" height="768" viewBox="0 0 1024 768"><g fill-rule="evenodd" clip-rule="evenodd" fill="#fff"><path d="M794.082 387.973c-.12.523-.328 1.045-.346 1.572-.063 1.918-.084 3.839-.085 5.758-.004 60.317-.003 120.634-.003 180.95v3.186h-97.711c-.039-.894-.104-1.674-.104-2.454-.005-57.597-.017-115.193.035-172.79.002-2.778.607-5.553.877-8.334 2.899-29.974-5.745-56.141-26.344-78.109-14.811-15.795-33.128-25.546-54.499-28.979-27.008-4.339-51.777 1.532-74.042 17.572-.639.46-1.289.904-2.141 1.5-5.999-15.389-13.542-29.803-22.761-43.324-9.229-13.537-19.892-25.844-32.102-37.125.62-.518 1.11-.988 1.659-1.377 21.528-15.293 45.181-25.792 70.969-31.498 17.53-3.878 35.282-5.31 53.163-4.169 47.295 3.017 88.382 20.721 122.804 53.299 28.155 26.647 46.6 59.051 55.498 96.82 2.998 12.724 4.783 25.61 4.779 38.712 0 .85.23 1.701.354 2.551v6.239zM534.881 579.451c-1.043.048-1.822.116-2.602.116-63.434.006-126.869.102-190.303-.028-39.286-.08-75.783-10.232-108.54-32.17-44.917-30.08-73.014-71.735-84.055-124.732-3.627-17.409-4.65-35.038-3.182-52.747 3.9-47.048 22.22-87.661 55.18-121.478 25.085-25.736 55.196-43.028 89.961-52.179 19.89-5.235 40.146-7.199 60.628-5.863 47.468 3.095 88.663 20.977 123.06 53.835 29.28 27.969 47.915 62.014 56.112 101.722 3.07 14.877 4.181 29.911 3.776 45.076-.032 1.199-.034 2.399-.034 3.599-.002 60.555-.002 121.109-.003 181.664l.002 3.185zm-290.839-194.421c-.025 53.223 43.181 96.439 96.438 96.643 51.984.198 96.72-41.613 96.816-96.445.096-54.594-44.222-96.705-96.499-96.783-53.189-.079-96.729 43.277-96.755 96.585z"/></g></svg>