<?xml version="1.0" encoding="utf-8"?>
<!-- Generator: Adobe Illustrator 16.0.0, SVG Export Plug-In . SVG Version: 6.00 Build 0)  -->
<!DOCTYPE svg PUBLIC "-//W3C//DTD SVG 1.1//EN" "http://www.w3.org/Graphics/SVG/1.1/DTD/svg11.dtd">
<svg version="1.1" id="Layer_1" xmlns="http://www.w3.org/2000/svg" xmlns:xlink="http://www.w3.org/1999/xlink" x="0px" y="0px"
	 width="180.873px" height="121.205px" viewBox="0 0 180.873 121.205" enable-background="new 0 0 180.873 121.205"
	 xml:space="preserve">
<g id="a">
	<g>
		<path fill="#3A54A5" d="M89.022,109.78v3.702h21.851v-29.39C106.759,94.973,98.964,104.02,89.022,109.78z"/>
		<path fill="#010101" d="M89.022,67.803c-2.507,13.416-14.284,23.6-28.418,23.6c-15.959,0-28.932-12.971-28.932-28.929
			c0-15.958,12.973-28.931,28.932-28.931c10.979,0,20.543,6.14,25.441,15.166l18.146-10.611C95.485,23.253,79.408,13.229,61,13.229
			c-27.652,0-50.127,22.506-50.127,50.127c0,27.654,22.475,50.125,50.127,50.125c26.122,0,47.611-20.106,49.873-45.679
			L89.022,67.803L89.022,67.803z"/>
	</g>
</g>
<g id="n">
	<path d="M169.552,63.667c0-0.104,0.009-0.206,0.009-0.31c0-27.55-22.33-49.88-49.871-49.88c-9.877,0-19.075,2.882-26.822,7.834
		c5.133,3.748,9.521,8.455,12.93,13.841l0.014-0.008l0.43,0.72c0.148,0.245,0.309,0.482,0.453,0.729l-0.012,0.008l0.102,0.171
		l-0.146,0.082c3.926-1.995,8.361-3.127,13.064-3.127c15.949,0,28.89,13.096,28.89,29.046c0,0.248-0.013-0.106-0.019,0.894h0.002
		l-0.573,50h22v-50H169.552z"/>
	<path fill="#3A54A5" d="M115.042,11.609L115,8.5V6.667H93v7v4.31v0.638C99.526,14.683,107.018,12.191,115.042,11.609z"/>
</g>
</svg>
