<?xml version="1.0" encoding="utf-8"?>
<!-- Generator: Adobe Illustrator 16.0.0, SVG Export Plug-In . SVG Version: 6.00 Build 0)  -->
<!DOCTYPE svg PUBLIC "-//W3C//DTD SVG 1.1//EN" "http://www.w3.org/Graphics/SVG/1.1/DTD/svg11.dtd">
<svg version="1.1" xmlns="http://www.w3.org/2000/svg" xmlns:xlink="http://www.w3.org/1999/xlink" x="0px" y="0px" width="309px"
	 height="111px" viewBox="0 0 309 111" enable-background="new 0 0 309 111" xml:space="preserve">
<g id="Layer_1" display="none">
	<path display="inline" fill-rule="evenodd" clip-rule="evenodd" fill="#3B3837" d="M395.055,166.021
		c-0.072,11.648-0.274,23.298-0.135,34.943c0.039,3.327-0.94,4.239-4.188,4.141c-2.951-0.091-4.414-0.397-4.347-3.994
		c0.317-16.805,0.22-33.616,0.486-50.422c0.183-11.463,12.004-19.144,22.735-14.955c1.221,0.476,3.701,0.706,2.865,2.411
		c-0.999,2.039-1.823,5.183-4.584,5.385c-12.881,0.941-13.69,1.737-12.84,14.588C396.957,160.751,396.824,163.386,395.055,166.021z"
		/>
	<path display="inline" fill-rule="evenodd" clip-rule="evenodd" fill="#3A3736" d="M190.275,400.002
		c9.546-0.114,17.203,7.41,17.241,16.94c0.037,9.374-7.277,16.906-16.562,17.058c-9.73,0.159-17.264-7.013-17.466-16.627
		C173.287,407.833,180.744,400.116,190.275,400.002z"/>
	<path display="inline" fill-rule="evenodd" clip-rule="evenodd" fill="#3B3837" d="M118.056,485.194
		c-0.071,12.958-0.177,25.916-0.192,38.875c-0.004,4.139,2.127,7.178,6.08,8.09c4.893,1.13,3.588,4.869,2.923,7.34
		c-0.809,3.007-3.685,0.915-5.413,0.423c-6.964-1.981-11.523-8.195-11.606-15.622c-0.18-16.111-0.225-32.225-0.411-48.336
		c-0.035-3.037-0.201-5.137,4.202-5.168c4.356-0.032,4.48,1.947,4.226,5.039c-0.053,0.649,0.125,1.317,0.197,1.978
		C119.779,480.274,119.773,482.735,118.056,485.194z"/>
	<path display="inline" fill-rule="evenodd" clip-rule="evenodd" fill="#3A3736" d="M49.867,203.257
		c-7.312,3.124-14.385,3.118-20.436-2.56c-5.194-4.874-6.522-11.089-4.376-17.88c2.12-6.708,8.803-11.494,15.916-11.639
		c7.097-0.144,13.389,4.341,15.887,11.324c-3.629,1.697-6.723,2.881-10.292-1.069c-3.436-3.804-9.546-2.535-12.636,1.635
		c-2.964,3.999-2.162,9.344,1.863,12.42c4.036,3.085,10.144,2.42,12.623-2.166c1.724-3.188,3.809-3.362,6.727-3.387
		c2.837-0.024,2.937,1.425,2.529,3.489C57.145,198.349,55.06,202.036,49.867,203.257z"/>
	<path display="inline" fill-rule="evenodd" clip-rule="evenodd" fill="#3A3736" d="M278.83,182.328
		c-2.737,4.129-6.243,4.442-9.064,0.811c-3.466-4.461-9.065-5.138-13.122-1.587c-3.849,3.369-4.175,9.227-0.72,12.933
		c3.382,3.628,9.232,3.707,12.962,0.138c1.225-1.171,1.705-2.97,4.32-2.29c5.607,1.457,6.121,2.516,2.362,6.908
		c-5.561,6.497-14.949,8.01-22.146,3.567c-6.992-4.314-9.805-13.171-6.659-20.964c3.197-7.922,11.388-12.025,19.938-9.953
		c1.445,0.351,2.854,0.854,4.279,1.286C276.262,173.94,277.609,178.079,278.83,182.328z"/>
	<path display="inline" fill-rule="evenodd" clip-rule="evenodd" fill="#3A3736" d="M34.166,322.02
		c-10.482-6.015-13.966-15.422-9.061-24.461c5.73-10.562,20.665-11.923,28.186-2.464c1.122,1.411,3.978,3.54,1.472,5.076
		c-1.906,1.169-4.832,3.611-7.853,0.049c-4.261-5.024-11.082-4.458-14.408,0.719c-2.492,3.879-2.087,7.831,1.134,10.941
		c2.966,2.864,6.55,4.693,10.441,1.106c1.68-1.074,3.063-2.433,4.003-4.211c2.96-1.859,5.898-0.082,7.5,1.517
		c1.775,1.772-0.789,4.106-2.047,5.856c-1.952,2.715-4.744,4.501-7.755,5.919C41.897,324.626,38.023,325.443,34.166,322.02z"/>
	<path display="inline" fill-rule="evenodd" clip-rule="evenodd" fill="#3A3736" d="M347.901,432.153
		c-10.955,4.235-19.85,1.354-24.073-7.848c-2.917-6.355-2.138-12.437,2.201-17.767c4.464-5.482,10.375-7.534,17.388-5.779
		c1.443,0.361,2.861,0.827,4.291,1.244c4.386,0.591,6.085,3.782,7.248,7.491c-1.421,3.848-6.109,4.763-9.051,1.767
		c-3.297-3.358-7.545-4.027-11.236-1.77c-3.761,2.3-5.334,6.717-3.815,10.717c1.587,4.184,5.433,6.473,9.784,5.867
		c2.251-0.313,4.406-1.26,5.383-3.165c3.015-5.879,6.26-2.783,9.579-0.56C355.13,427.266,353.293,431.104,347.901,432.153z"/>
	<path display="inline" fill-rule="evenodd" clip-rule="evenodd" fill="#3A3736" d="M188.51,205.173
		c-7.951-0.054-14.682-5.284-16.374-12.726c-1.842-8.1,1.994-16.094,9.368-19.527c7.222-3.362,15.826-1.386,20.6,4.928
		c1.053,1.393,3.498,3.635,1.5,4.82c-1.977,1.174-5.008,3.887-7.807,0.24c-2.14-2.787-5.089-4.23-8.753-3.355
		c-4.158,0.993-6.719,3.542-7.157,7.869c-0.437,4.313,1.431,7.583,5.391,9.167c4.118,1.647,7.764,0.556,10.717-2.926
		c0.969-1.143,0.637-3.625,3.689-2.883c5.516,1.344,6.344,2.838,2.944,7.427C199.139,202.917,194.498,205.452,188.51,205.173z"/>
	<path display="inline" fill-rule="evenodd" clip-rule="evenodd" fill="#3A3837" d="M328.86,192.795
		c1.977,3.786,5.341,5.086,9.174,4.107c4.137-1.058,8.22-0.454,12.387-0.795c-3.442,10.264-19.017,12.352-26.767,3.633
		c-4.551-5.119-5.829-11.204-3.341-17.63c2.478-6.398,7.411-10.193,14.265-10.858c6.843-0.663,12.298,2.127,16.114,7.869
		c2.195,3.303,3.309,6.492-1.289,8.985c-1.568,0.851-2.817,2.289-4.213,3.459c-1.86-1.604-1.172-4.064-2.04-6
		c-4.178-6.937-9.615-7.013-13.965-0.18C327.58,187.792,329.289,190.342,328.86,192.795z"/>
	<path display="inline" fill-rule="evenodd" clip-rule="evenodd" fill="#3B3837" d="M388.832,280.992
		c-0.001-8.16,0.1-16.322-0.056-24.479c-0.055-2.831,0.382-4.292,3.736-4.14c2.915,0.133,4.467,0.374,4.417,4.028
		c-0.216,15.817-0.041,31.641-0.121,47.461c-0.026,5.31,1.879,9.034,7.325,10.334c4.182,0.997,2.329,4.35,2.211,6.561
		c-0.169,3.154-2.872,1.433-4.299,1.188c-7.456-1.283-12.865-7.969-13.205-15.972c-0.014-0.333-0.008-0.666-0.008-0.999
		C388.832,296.979,388.833,288.986,388.832,280.992z"/>
	<path display="inline" fill-rule="evenodd" clip-rule="evenodd" fill="#3A3736" d="M256.306,401.949
		c4.937-1.722,9.851-2.672,14.954-0.444c8.247,3.6,12.435,13.04,9.4,21.509c-2.946,8.228-12.007,12.962-20.476,10.658
		c-1.426-0.388-2.798-0.976-4.194-1.472c-4.854-1.09-6.857-4.567-7.617-9.089c2.724-3.969,6.219-4.225,8.913-0.65
		c3.106,4.122,8.893,4.939,12.838,1.814c3.971-3.146,4.565-9.032,1.303-12.906c-3.334-3.958-9.289-4.619-12.783-0.615
		c-3.744,4.291-6.61,2.311-9.856-0.108C249.197,405.935,251.488,402.85,256.306,401.949z"/>
	<path display="inline" fill-rule="evenodd" clip-rule="evenodd" fill="#3A3736" d="M105.724,173.9
		c15.04-7.011,27.531,5.159,25.415,17.544c-1.209,7.078-5.201,11.702-12.084,13.714c-6.721,1.965-13.732-0.167-17.854-5.611
		c-1.101-1.453-4.077-3.538-1.44-5.183c1.917-1.194,5.028-3.594,7.807,0.175c2.323,3.151,5.842,4.303,9.795,2.75
		c3.584-1.408,5.726-4.052,5.95-7.873c0.252-4.285-1.887-7.446-5.808-8.959c-4.229-1.633-7.824-0.205-10.533,3.374
		c-2.559,3.381-6.651,2.916-8.819-1.038C98.982,178.387,101.177,175.142,105.724,173.9z"/>
	<path display="inline" fill-rule="evenodd" clip-rule="evenodd" fill="#3B3837" d="M209.027,537.046
		c-14.467,6.536-27.271-4.13-25.612-18.276c0.385-3.282,0.358-6.695-0.081-9.968c-0.402-2.99,0.864-3.584,3.258-3.307
		c2.01,0.232,5.029-1.251,4.939,2.848c-0.095,4.326-0.081,8.658,0.012,12.985c0.127,5.971,3.795,9.815,9.075,9.666
		c5.297-0.149,8.873-4.186,8.68-10.023c-0.13-3.941,1.55-7.312,2.821-11.221c3.938,3.671,5.279,7.929,5.329,12.73
		C217.541,530.855,215.167,534.96,209.027,537.046z"/>
	<path display="inline" fill-rule="evenodd" clip-rule="evenodd" fill="#3B3837" d="M108.005,291.149
		c15.078-6.411,25.408,4.322,25.716,14.687c0.123,4.137-0.073,8.288,0.164,12.416c0.182,3.17-0.354,4.674-4.172,4.744
		c-4.237,0.078-3.982-2.146-3.907-4.953c0.098-3.654,0.16-7.318-0.016-10.967c-0.228-4.732-2.268-8.36-7.179-9.574
		c-4.504-1.114-7.622,1.016-10.042,4.664c-1.872,2.821-5.185,2.109-8.202-1.67C101.119,295.914,102.809,292.099,108.005,291.149z"/>
	<path display="inline" fill-rule="evenodd" clip-rule="evenodd" fill="#3B3836" d="M116.05,401.792
		c14.68-5.816,25.77,1.728,25.783,17.54c0.003,3.666-0.142,7.339,0.038,10.996c0.184,3.748-2.457,2.658-4.404,2.835
		c-2.184,0.199-3.881,0.088-3.693-2.99c0.243-3.983,0.005-7.995,0.071-11.993c0.08-4.849-1.753-8.665-6.535-10.01
		c-4.665-1.312-8.206,0.526-10.891,4.837c-2.92,4.688-5.312-0.363-7.957-0.995C109.02,405.916,110.913,403.367,116.05,401.792z"/>
	<path display="inline" fill-rule="evenodd" clip-rule="evenodd" fill="#3A3736" d="M30.078,402.7
		c8.031-3.849,15.267-2.554,21.787,3.37c3.507,1.56,3.751,4.769,4.024,7.963c0.038,5.629-0.13,11.27,0.188,16.882
		c0.198,3.5-1.813,3.16-4.016,3.097c-2.061-0.061-4.386,0.666-4.125-2.975c0.284-3.954,0.119-7.945,0.05-11.92
		c-0.096-5.573-2.488-9.221-6.863-10.22c-4.85-1.107-8.505,0.696-10.521,5.228c-0.83,1.865-1.64,2.11-3.292,1.147
		c-1.543-0.898-3.512-1.002-4.75-2.5C22.547,407.535,24.925,404.082,30.078,402.7z"/>
	<path display="inline" fill-rule="evenodd" clip-rule="evenodd" fill="#3A3837" d="M236.61,339.289
		c-3.196-5.614-2.711-10.224,2.774-14.474c4.173-3.233,7.646-7.382,11.36-11.191c4.456-4.569,4.766-9.19,0.189-13.47
		c-3.708-3.468,0.406-5.012,1.371-6.933c1.467-2.917,3.068-0.026,4.14,0.921c7.252,6.414,7.474,17.084,0.802,24.492
		c-3.414,3.791-7.927,6.589-10.276,11.34c-0.182,1.698-1.194,2.834-2.528,3.753c-1.141,0.562-2.141,1.287-2.751,2.452
		c-0.564,0.895-1.128,1.791-2.059,2.365C238.701,339.095,237.612,339.016,236.61,339.289z"/>
	<path display="inline" fill-rule="evenodd" clip-rule="evenodd" fill="#0397D1" d="M55.889,414.033
		c-1.341-2.654-2.682-5.309-4.024-7.963c5.265-5.533,11.625-6.999,18.666-4.387c6.938,2.573,10.468,7.984,10.896,15.295
		c0.242,4.151-0.063,8.336,0.199,12.485c0.206,3.25-0.466,4.631-4.224,4.699c-4.14,0.074-4.134-1.979-4.007-4.904
		c0.137-3.16-0.042-6.331,0.047-9.494c0.137-4.901-1.117-9.045-6.248-10.716C62.075,407.381,58.548,409.851,55.889,414.033z"/>
	<path display="inline" fill-rule="evenodd" clip-rule="evenodd" fill="#0498D1" d="M347.901,432.153
		c3.569-2.483,6.266-5.65,7.697-9.807c0.084,14.8,0.079,29.596,0.317,44.388c0.053,3.288-1.605,3.271-3.992,3.33
		c-2.587,0.064-3.88-0.378-3.852-3.479C348.176,455.109,347.983,443.631,347.901,432.153z"/>
	<path display="inline" fill-rule="evenodd" clip-rule="evenodd" fill="#0599D1" d="M248.373,423.111
		c1.727,3.711,4.309,6.705,7.618,9.089c-0.046,11.274-0.172,22.549-0.08,33.821c0.023,2.836-0.433,4.235-3.744,4.09
		c-2.76-0.122-4.162-0.389-4.102-3.745C248.324,451.951,248.297,437.53,248.373,423.111z"/>
	<path display="inline" fill-rule="evenodd" clip-rule="evenodd" fill="#0297D0" d="M313.155,300.957
		c-0.052-14.644-0.009-29.289-0.229-43.93c-0.051-3.379,1.73-3.187,4.031-3.236c2.492-0.054,3.976,0.241,3.959,3.415
		c-0.058,11.472,0.174,22.944,0.295,34.417c0.392-0.234,0.739-0.138,0.639,0.008C319.404,295.159,316.5,298.265,313.155,300.957z"/>
	<path display="inline" fill-rule="evenodd" clip-rule="evenodd" fill="#0498D1" d="M105.724,173.9
		c-3.152,2.431-5.804,5.286-7.572,8.894c-0.053-14.492-0.013-28.984-0.23-43.473c-0.048-3.175,1.348-3.387,3.864-3.401
		c2.605-0.015,3.89,0.425,3.857,3.5C105.522,150.912,105.674,162.407,105.724,173.9z"/>
	<path display="inline" fill-rule="evenodd" clip-rule="evenodd" fill="#3B3837" d="M404.145,401.953
		c2.646-0.906,5.151-2.412,8.079-2.165c1.949,0.165,5.409-0.975,5.36,1.4c-0.051,2.508,0.195,6.719-5.072,6.73
		c-5.011,0.011-8.046,3.897-8.297,9.432c-0.195,4.313-0.121,8.644-0.014,12.963c0.052,2.08-0.534,3.392-2.768,2.729
		c-1.717-0.509-4.882,1.589-4.913-2.239c-0.045-5.63-1.022-11.271,0.101-16.894C396.568,407.231,398.815,403.661,404.145,401.953z"
		/>
	<path display="inline" fill-rule="evenodd" clip-rule="evenodd" fill="#0699D1" d="M108.005,291.149
		c-3.413,2.41-5.956,5.531-7.638,9.351c-0.074-13.976-0.071-27.949-0.276-41.919c-0.05-3.435,2.008-3.109,4.22-3.199
		c2.404-0.099,3.621,0.532,3.599,3.322C107.824,269.519,107.955,280.334,108.005,291.149z"/>
	<path display="inline" fill-rule="evenodd" clip-rule="evenodd" fill="#0297D1" d="M278.83,182.328
		c-2.066-3.523-4.409-6.809-7.851-9.151c0.058-9.807,0.137-19.613,0.161-29.421c0.008-3.041,0.646-5.011,4.476-4.709
		c2.493,0.197,3.476,0.696,3.439,3.386C278.881,155.729,278.887,169.029,278.83,182.328z"/>
	<path display="inline" fill-rule="evenodd" clip-rule="evenodd" fill="#3A3837" d="M34.826,625.823
		c-2.533-5.617-2.844-11.235-0.013-16.856c4.783-1.083,6.365,2.583,6.869,5.76c0.683,4.305,2.393,7.757,5.153,10.897
		c2.462,0.82,5.173,1.179,7.13-0.544c3.308-2.91,3.966-0.479,5.513,1.824c2.074,3.089,0.623,4.325-1.937,5.571
		c-5.873,2.858-11.572,1.87-17.232-0.624C37.211,630.996,34.961,629.371,34.826,625.823z"/>
	<path display="inline" fill-rule="evenodd" clip-rule="evenodd" fill="#0297D0" d="M46.834,625.624
		c-4.025-1.557-5.927-4.45-5.986-8.806c-0.054-3.994-1.679-7.039-6.036-7.852c-2.255-1.366-4.783-1.161-6.63,0.201
		c-4.543,3.349-5.642-1.216-7.576-3.181c-1.475-1.498,0.79-2.195,1.687-2.804c6.146-4.169,12.466-3.741,18.822-0.438
		c3.271,0.771,5.437,2.611,5.897,6.1C49.234,614.463,49.699,620.061,46.834,625.624z"/>
	<path display="inline" fill-rule="evenodd" clip-rule="evenodd" fill="#0297D0" d="M120.181,625.247
		c-12.846,1.09-20.878-8.812-19.245-19.989c0.142-0.97,0.129-2.014,1.381-2.765c2.874,2.418,6.057,4.21,7.047,8.761
		c1.186,5.449,8.016,7.521,12.945,4.658c4.174-2.426,6.797-1.29,8.988,3.894C128.325,623.117,125.353,626.43,120.181,625.247z"/>
	<path display="inline" fill-rule="evenodd" clip-rule="evenodd" fill="#3B3837" d="M120.181,625.247
		c4.338-0.521,7.41-3.629,11.116-5.44c0.068,4.807-2.144,8.485-5.44,11.816c-3.354,3.39-7.181,6.347-9.857,10.382
		c0.547,1.046-0.103,1.736-0.714,2.44c-3.381,1.671-4.837,5.982-9.002,6.585c-3.399-7.54-3.335-7.69,2.005-13.195
		C112.308,633.692,116.22,629.447,120.181,625.247z"/>
	<path display="inline" fill-rule="evenodd" clip-rule="evenodd" fill="#3B3938" d="M27.087,527.48
		c-0.286-0.171-0.59-0.315-0.854-0.516c-6.984-5.306-6.791-8.951,0.732-13.95c8.718-5.794,19.413-2.795,24.884,6.977
		c-5.145,3.117-5.585,3.073-10.422-0.195c-3.835-2.593-7.512-2.09-10.973,0.819C30.145,523.302,29.264,525.709,27.087,527.48z"/>
	<path display="inline" fill-rule="evenodd" clip-rule="evenodd" fill="#3B3837" d="M359.119,539.633
		c-7.598,0.491-7.592,0.489-10.284-6.661c-3.201-8.503-6.414-17.003-9.594-25.431c5.644-2,8.259,0.095,9.918,5.355
		c2.078,6.591,5.08,12.891,7.683,19.316C358.813,534.313,360.495,536.504,359.119,539.633z"/>
	<path display="inline" fill-rule="evenodd" clip-rule="evenodd" fill="#3B3837" d="M45.447,526.919
		c8.524,5.075,8.665,8.95,0.525,14.445c-6.742,4.551-16.336,3.538-21.815-2.445c-0.955-1.042-3.442-2.516-1.58-3.854
		c1.913-1.376,4.394-4.104,7.267-1.747c4.142,3.398,8.161,4.15,12.458,0.462C43.108,531.381,42.999,528.563,45.447,526.919z"/>
	<path display="inline" fill-rule="evenodd" clip-rule="evenodd" fill="#3B3837" d="M196.319,623.431
		c4.244,3.877,9.456,2.103,14.284,2.35c4.758,0.242,6.099,1.798,4.907,6.279c-0.292,1.096-0.724,1.823-1.944,1.757
		c-5.433-0.292-10.94,0.826-16.295-0.77c-1.405-0.419-2.792-1.053-4.039-1.826c-8.21-5.094-8.269-9.148-0.272-14.465
		C195.517,618.257,195.788,620.909,196.319,623.431z"/>
	<path display="inline" fill-rule="evenodd" clip-rule="evenodd" fill="#3B3837" d="M208.145,610.267
		c-4.357-4.185-9.789-2.146-14.744-2.3c-3.336-0.104-4.638-0.701-4.534-4.348c0.087-3.047,0.805-4.112,3.91-3.852
		c3.298,0.277,6.637,0.057,9.958,0.073c2.705,0.014,5.213,0.715,7.616,1.989c9.089,4.819,9.457,9.696,1.105,15.427
		C209.226,615.46,209.269,612.587,208.145,610.267z"/>
	<path display="inline" fill-rule="evenodd" clip-rule="evenodd" fill="#3B3837" d="M272.718,532.24
		c3.061-7.309,6.112-14.621,9.185-21.925c1.253-2.979,5.625-4.627,8.357-3.251c1.378,0.693,0.694,1.631,0.355,2.436
		c-4.221,10.033-8.478,20.052-12.725,30.073C274.617,538.222,272.448,536.092,272.718,532.24z"/>
	<path display="inline" fill-rule="evenodd" clip-rule="evenodd" fill="#0297D0" d="M272.718,532.24
		c1.319,2.73,3.106,5.13,5.175,7.331c-8.558,2.671-14.395-1.155-18.987-7.948c-2.932-3.169-4.131-6.652-1.961-10.751
		c0.556-3.702,2.783-6.437,5.525-9.772c1.401,4.172,2.947,7.572,2.784,11.63C265.05,527.822,267.496,531.216,272.718,532.24z"/>
	<path display="inline" fill-rule="evenodd" clip-rule="evenodd" fill="#3B3837" d="M313.155,300.957
		c1.84-3.844,4.512-6.968,8.059-9.334c10.722-4.333,20.052-1.047,23.52,8.283c-2.743,2.125-5.81,1.536-8.864,1.065
		c-1.453-0.381-2.288-1.459-3-2.675c-4.207-1.476-7.617-0.353-10.588,2.924c-0.993,1.094-0.611,3.996-2.773,3.237
		C317.297,303.681,314.058,304.247,313.155,300.957z"/>
	<path display="inline" fill-rule="evenodd" clip-rule="evenodd" fill="#3B3837" d="M190.17,313.051
		c0,1.821-0.292,3.701,0.058,5.452c0.822,4.121-0.971,4.987-4.691,4.76c-2.488-0.152-3.571-0.674-3.427-3.368
		c0.204-3.798-0.05-7.617,0.08-11.421c0.119-3.474-0.628-6.393-3.308-8.92c-3.032-2.859,0.753-4.629,1.792-6.525
		c1.371-2.499,2.762,0.067,3.811,0.912C190.74,298.976,190.5,306.015,190.17,313.051z"/>
	<path display="inline" fill-rule="evenodd" clip-rule="evenodd" fill="#3A3838" d="M369.732,528.225
		c0.917,2.422,2.767,3.619,5.242,3.995c3.389,1.115,4.1,4.133,4.989,7.022c-5.848,3.292-10.178-0.135-14.568-3.291
		c-3.547-1.125-3.85-4.022-3.866-7.076c-1.347-6.395-0.747-12.325,4.053-17.472c2.432,2.189,3.668,4.776,4.222,7.741
		C368.817,522.164,368.954,525.191,369.732,528.225z"/>
	<path display="inline" fill-rule="evenodd" clip-rule="evenodd" fill="#0297D0" d="M379.964,539.242
		c-1.663-2.341-3.325-4.682-4.988-7.022c2.491-6.49,4.984-12.979,7.474-19.471c2.347-6.12,2.346-6.121,9.825-5.406
		C388.131,518.081,384.047,528.661,379.964,539.242z"/>
	<path display="inline" fill-rule="evenodd" clip-rule="evenodd" fill="#3C3938" d="M338.936,306.439
		c2.161,2.271,4.272,4.594,6.498,6.801c1.994,1.979,4.168,3.298,0.909,6.542c-3.02,3.007-4.368,1.762-6.561-0.522
		c-4.8-5-9.802-9.805-14.76-14.727c1.625-2.289,4.081-3.104,5.973-4.643c0.411-0.273,0.841-0.306,1.289-0.102
		C334.823,301.682,337.463,303.478,338.936,306.439z"/>
	<path display="inline" fill-rule="evenodd" clip-rule="evenodd" fill="#3B3938" d="M115.028,643.887
		c0.324-0.627,0.647-1.254,0.971-1.882c3.094-1.721,4.976,0.575,7.18,2.063c1.887,1.274,1.718,2.191,0.231,3.776
		c-2.86,3.049-6.539,5.374-8.441,9.291c-1.755,3.693-4.503,6.326-8.337,7.797c-1.844-4.375-3.249-8.731,0.531-12.873
		C109.135,648.71,112.18,646.393,115.028,643.887z"/>
	<path display="inline" fill-rule="evenodd" clip-rule="evenodd" fill="#3A3938" d="M243.684,333.152
		c1.096-1.06,2.191-2.118,3.287-3.177c3.588-1.739,5.254,1.442,7.48,3.02c1.186,0.841,0.188,1.706-0.483,2.424
		c-1.688,1.803-3.375,3.605-5.062,5.408c-0.46,2.059-2.062,3.369-3.239,4.962c-3.03,2.267-5.041,5.803-8.837,7.119
		c-1.347-4.395-3.414-8.839,0.891-12.841c0.139-0.816,0.627-1.432,1.16-2.021c0.813-0.732,1.626-1.465,2.439-2.197
		C242.079,334.926,242.952,334.101,243.684,333.152z"/>
	<path display="inline" fill-rule="evenodd" clip-rule="evenodd" fill="#3B3938" d="M41.095,340.896
		c2.927-0.725,5.384-4.233,8.962-0.228c2.188,2.45,1.69,3.27-0.275,4.899c-5.467,4.532-13.944,5.058-20.083,1.273
		c-3.066-1.891-4.086-3.701-0.413-5.996c0.977-0.61,1.826-1.424,2.733-2.145C35.204,338.775,38.021,340.366,41.095,340.896z"/>
	<path display="inline" fill-rule="evenodd" clip-rule="evenodd" fill="#3B3838" d="M44.001,325.083
		c3.854-1.552,6.282,1.633,7.423,3.754c1.137,2.113-2.616,3.41-4.145,5.132c-3.944,2.143-7.774,5.271-12.405,1.423
		c-0.306-0.109-0.615-0.211-0.918-0.328c-8.807-3.407-8.983-4.356-1.898-10.175C36.027,325.683,39.981,327.448,44.001,325.083z"/>
	<path display="inline" fill-rule="evenodd" clip-rule="evenodd" fill="#3C3938" d="M47.012,608.846
		c-1.966-2.032-3.932-4.065-5.897-6.1c7.302-3.863,15.209-2.938,20.292,1.938c2.123,2.036,0.968,3.162-0.492,4.257
		c-1.367,1.024-1.759,4.674-4.766,1.988C53.516,608.576,50.566,607.307,47.012,608.846z"/>
	<path display="inline" fill-rule="evenodd" clip-rule="evenodd" fill="#0798D0" d="M344.23,184.778
		c1.652,2.069,0.452,4.548,0.966,6.784c-5.3,2.396-10.94,0.179-16.336,1.233c-1.894-2.524-2.353-5.177-0.722-8.018
		C333.502,182.779,338.866,182.703,344.23,184.778z"/>
	<path display="inline" fill-rule="evenodd" clip-rule="evenodd" fill="#0497D0" d="M208.145,610.267
		c2.709,1.567,2.777,4.39,3.315,6.989c-5.049,2.062-10.095,4.123-15.14,6.18c-2.213-1.68-2.475-4.337-3.36-6.68
		C198.021,614.593,203.083,612.43,208.145,610.267z"/>
	<path display="inline" fill-rule="evenodd" clip-rule="evenodd" fill="#0397D0" d="M45.447,526.919
		c-0.333,2.615-0.617,5.254-3.145,6.861c-5.071-2.102-10.144-4.201-15.216-6.301c0.768-2.464,1.177-5.104,3.367-6.868
		C35.452,522.717,40.45,524.817,45.447,526.919z"/>
	<path display="inline" fill-rule="evenodd" clip-rule="evenodd" fill="#0498D1" d="M236.829,352.908
		c2.429-2.953,5.061-5.691,8.261-7.829c1.62-0.767,2.423-3.354,4.903-2.203c1.342,1.978,5.301,2.662,4.622,5.062
		c-0.837,2.961-4.239,4.325-7.293,5.262C243.796,354.28,240.279,354.711,236.829,352.908z"/>
	<path display="inline" fill-rule="evenodd" clip-rule="evenodd" fill="#0498D1" d="M106.632,664.933
		c2.501-2.896,4.968-5.829,8.337-7.797c1.956,0.172,2.845-3.266,5.163-1.618c1.596,1.134,3.93,2.313,4.274,3.845
		c0.409,1.822-2.062,3.067-3.706,4.03C116.273,665.986,111.623,667.192,106.632,664.933z"/>
	<path display="inline" fill-rule="evenodd" clip-rule="evenodd" fill="#0397D1" d="M34.826,625.823
		c1.826,2.01,3.653,4.019,5.481,6.028c-4.707,3.044-9.697,2.961-14.764,1.185c-1.435-0.504-3.766-1.089-2.243-3.3
		c1.183-1.717,0.878-5.634,4.684-4.319C30.303,626.219,32.517,626.183,34.826,625.823z"/>
	<path display="inline" fill-rule="evenodd" clip-rule="evenodd" fill="#0396CF" d="M209.027,537.046
		c5.023-3.593,8.163-8.271,8.422-14.588c-0.096,4.796-0.174,9.57-0.293,14.343c-0.051,2.004,0.775,4.464-2.901,4.265
		C211.403,540.911,208.415,541.479,209.027,537.046z"/>
	<path display="inline" fill-rule="evenodd" clip-rule="evenodd" fill="#1BA0D3" d="M404.145,401.953
		c-3.95,3.089-6.839,6.845-7.524,11.97c-0.094-3.817-0.169-7.623-0.291-11.427c-0.067-2.09,0.352-3.704,2.966-3.394
		C401.317,399.342,404.358,397.895,404.145,401.953z"/>
	<path display="inline" fill-rule="evenodd" clip-rule="evenodd" fill="#0494CC" d="M34.875,335.392
		c4.331,1.25,8.332-0.385,12.403-1.421c-2.06,2.308-4.121,4.616-6.183,6.925c-3.6,1.646-6.275-0.534-9.076-2.194
		C32.971,337.598,33.923,336.494,34.875,335.392z"/>
	<path display="inline" fill-rule="evenodd" clip-rule="evenodd" fill="#199FD2" d="M256.306,401.949
		c-3.216,2.288-5.916,5.021-7.518,8.7c-0.979-2.555-0.254-5.201-0.42-7.799c-0.106-1.667-0.138-3.677,2.3-3.416
		C252.722,399.654,256,397.664,256.306,401.949z"/>
	<path display="inline" fill-rule="evenodd" clip-rule="evenodd" fill="#0B95CA" d="M44.001,325.083
		c-3.789,3.748-6.228,3.708-11.943-0.193c0.703-0.957,1.405-1.914,2.107-2.87c3.868,0.987,7.74,1.052,11.614,0.047
		C45.187,323.072,44.594,324.077,44.001,325.083z"/>
	<path display="inline" fill-rule="evenodd" clip-rule="evenodd" fill="#0596CE" d="M361.529,528.875
		c1.288,2.359,2.575,4.718,3.864,7.076c-1.653,1.973-3.649,3.365-6.275,3.682c-0.758-2.474-1.517-4.947-2.276-7.42
		C358.913,531.814,360.263,530.402,361.529,528.875z"/>
	<path display="inline" fill-rule="evenodd" clip-rule="evenodd" fill="#1A9ED0" d="M116.05,401.792
		c-3.518,2.68-6.587,5.69-7.584,10.229c-0.125-2.428-0.416-4.854-0.31-7.261c0.07-1.588-1.107-4.219,1.483-4.446
		C111.708,400.133,114.593,398.548,116.05,401.792z"/>
	<path display="inline" fill-rule="evenodd" clip-rule="evenodd" fill="#159DD1" d="M49.867,203.257
		c3.619-2.473,6.126-5.828,7.805-9.835c0.073,2.463,0.247,4.925,0.179,7.38c-0.037,1.348,0.762,3.622-1.118,3.767
		C54.487,204.74,51.539,206.662,49.867,203.257z"/>
	<path display="inline" fill-rule="evenodd" clip-rule="evenodd" fill="#1B9DCF" d="M30.078,402.7
		c-3.487,2.626-6.472,5.627-7.517,10.074c-0.995-2.218-0.435-4.559-0.393-6.819c0.03-1.605-1.169-4.235,1.341-4.598
		C25.612,401.054,28.456,399.667,30.078,402.7z"/>
	<path display="inline" fill-rule="evenodd" clip-rule="evenodd" fill="#0695CD" d="M338.936,306.439
		c-2.797-1.508-4.727-3.95-6.766-6.273c0.823-1.069,1.879-0.704,2.912-0.47c3.218,0.07,6.435,0.141,9.651,0.21
		C343.285,302.515,341.062,304.435,338.936,306.439z"/>
	<path display="inline" fill-rule="evenodd" clip-rule="evenodd" fill="#0D9CD2" d="M246.906,293.547
		c-0.268,1.624,0.776,4.413-2.446,4.266c-3.838-0.177-3.174-3.817-3.725-6.036c-0.695-2.802,2.076-1.678,3.385-1.912
		C246.997,289.351,247.733,290.861,246.906,293.547z"/>
	<path display="inline" fill-rule="evenodd" clip-rule="evenodd" fill="#0E9AD0" d="M354.956,409.495
		c-2.083-2.818-4.486-5.327-7.247-7.491c0.105-3.939,3.103-2.351,5.062-2.571c2.452-0.276,2.472,1.499,2.416,3.222
		C355.113,404.935,355.033,407.215,354.956,409.495z"/>
	<path display="inline" fill-rule="evenodd" clip-rule="evenodd" fill="#0899D1" d="M175.146,293.121
		c-0.82,1.254,1.493,4.97-2.585,4.652c-3.659-0.286-3.182-3.911-3.509-6.173c-0.372-2.576,2.298-1.524,3.705-1.733
		C174.839,289.558,175.982,290.366,175.146,293.121z"/>
	<path display="inline" fill-rule="evenodd" clip-rule="evenodd" fill="#099AD2" d="M395.055,166.021
		c-0.003-2.635-0.005-5.269-0.007-7.903c3.393-0.142,5.323,0.599,5.123,4.887C399.962,167.499,397.06,165.591,395.055,166.021z"/>
	<path display="inline" fill-rule="evenodd" clip-rule="evenodd" fill="#3F3F3F" d="M256.944,520.872
		c0.058,3.692,0.691,7.279,1.96,10.751c-0.467-0.126-0.979-0.167-1.394-0.389C251.002,527.746,250.914,526.073,256.944,520.872z"/>
	<path display="inline" fill-rule="evenodd" clip-rule="evenodd" fill="#0A9AD2" d="M118.056,485.194
		c0.002-2.461,0.004-4.921,0.007-7.382c2.546,0,4.972-0.631,4.972,3.691C123.035,485.833,120.59,485.178,118.056,485.194z"/>
	<path display="inline" fill-rule="evenodd" clip-rule="evenodd" fill="#0392CA" d="M369.732,528.225
		c-2.066-3.043-2.537-6.074,0.071-9.081C370.802,522.18,370.614,525.205,369.732,528.225z"/>
	<path display="inline" fill-rule="evenodd" clip-rule="evenodd" fill="#0B93C8" d="M115.028,643.887
		c-2.002,3.32-4.953,5.728-7.866,8.172c-0.293-0.343-0.587-0.687-0.88-1.029C109.36,648.846,110.929,644.817,115.028,643.887z"/>
	<path display="inline" fill-rule="evenodd" clip-rule="evenodd" fill="#E6F1F5" d="M249.993,342.876
		c-1.965-0.001-2.844,2.415-4.903,2.202c0.54-2.073,2.249-3.099,3.815-4.251C249.268,341.51,249.631,342.193,249.993,342.876z"/>
	<path display="inline" fill-rule="evenodd" clip-rule="evenodd" fill="#2EA9D7" d="M48.081,308.775
		c-0.302,2.386-1.544,3.877-4.003,4.211C44.849,311.047,46.469,309.915,48.081,308.775z"/>
	<path display="inline" fill-rule="evenodd" clip-rule="evenodd" fill="#BDD2D8" d="M335.082,299.696
		c-0.972,0.156-1.943,0.312-2.913,0.469c-0.391-0.091-0.782-0.183-1.174-0.274c0.624-0.531,1.249-1.062,1.874-1.594
		C333.856,298.369,334.522,298.949,335.082,299.696z"/>
	<path display="inline" fill-rule="evenodd" clip-rule="evenodd" fill="#0296D4" d="M238.88,338.047
		c0.082,0.943-0.258,1.644-1.16,2.021c-0.372-0.26-0.744-0.519-1.113-0.778C237.145,338.47,237.888,338.03,238.88,338.047z"/>
	<path display="inline" fill-rule="evenodd" clip-rule="evenodd" fill="#FDFDFD" d="M190.328,408.004
		c4.804-0.104,8.93,3.853,9.125,8.749c0.192,4.843-3.7,9.047-8.557,9.244c-5.142,0.209-9.346-3.799-9.354-8.917
		C181.535,412.213,185.508,408.108,190.328,408.004z"/>
	<path display="inline" fill-rule="evenodd" clip-rule="evenodd" fill="#ECF3F5" d="M344.23,184.778c-5.364,0-10.729,0-16.092,0
		c1.369-3.954,4.423-5.673,8.321-5.578C340.126,179.289,343.062,180.941,344.23,184.778z"/>
	<path display="inline" fill-rule="evenodd" clip-rule="evenodd" fill="#0196D0" d="M243.684,333.152
		c0.161,1.731-0.788,2.489-2.364,2.697C241.15,334.111,242.098,333.352,243.684,333.152z"/>
</g>
<g id="Layer_2">
	<g>
		<path fill-rule="evenodd" clip-rule="evenodd" fill="#3A3736" d="M38.914,77.581c-7.312,3.124-14.385,3.118-20.436-2.56
			c-5.194-4.874-6.522-11.089-4.376-17.88c2.12-6.708,8.803-11.494,15.916-11.639c7.097-0.144,13.389,4.341,15.886,11.324
			c-3.629,1.697-6.723,2.881-10.291-1.069c-3.436-3.804-9.546-2.535-12.636,1.635c-2.964,3.999-2.162,9.344,1.863,12.42
			c4.036,3.085,10.144,2.42,12.623-2.166c1.724-3.188,3.809-3.362,6.727-3.387c2.837-0.024,2.937,1.425,2.528,3.489
			C46.191,72.672,44.107,76.36,38.914,77.581z"/>
		<path fill-rule="evenodd" clip-rule="evenodd" fill="#159DD1" d="M38.914,77.581c3.619-2.473,6.126-5.828,7.805-9.835
			c0.073,2.463,0.248,4.925,0.18,7.38c-0.037,1.348,0.762,3.622-1.118,3.767C43.533,79.064,40.586,80.986,38.914,77.581z"/>
	</g>
	<g>
		<path fill-rule="evenodd" clip-rule="evenodd" fill="#3B3836" d="M142.017,47.881c14.68-5.816,25.77,1.728,25.783,17.54
			c0.003,3.666-0.142,7.339,0.038,10.996c0.184,3.748-2.457,2.658-4.404,2.835c-2.184,0.199-3.881,0.088-3.693-2.99
			c0.243-3.983,0.005-7.995,0.07-11.993c0.08-4.849-1.753-8.665-6.535-10.01c-4.664-1.312-8.205,0.526-10.891,4.837
			c-2.92,4.688-5.312-0.363-7.957-0.995C134.987,52.005,136.879,49.456,142.017,47.881z"/>
		<path fill-rule="evenodd" clip-rule="evenodd" fill="#1A9ED0" d="M142.017,47.881c-3.518,2.68-6.587,5.69-7.585,10.229
			c-0.125-2.428-0.415-4.854-0.309-7.261c0.069-1.588-1.107-4.219,1.482-4.446C137.675,46.222,140.561,44.637,142.017,47.881z"/>
	</g>
	<g>
		<path fill-rule="evenodd" clip-rule="evenodd" fill="#3B3837" d="M76.286,71.325c3.061-7.309,6.112-14.621,9.185-21.925
			c1.253-2.979,5.625-4.627,8.357-3.251c1.378,0.693,0.694,1.631,0.355,2.436c-4.221,10.033-8.478,20.052-12.725,30.073
			C78.185,77.307,76.016,75.177,76.286,71.325z"/>
		<path fill-rule="evenodd" clip-rule="evenodd" fill="#0297D0" d="M76.286,71.325c1.319,2.73,3.106,5.13,5.175,7.331
			c-8.558,2.671-14.395-1.155-18.987-7.948c-2.932-3.169-4.131-6.652-1.961-10.751c0.556-3.702,2.783-6.437,5.525-9.772
			c1.401,4.172,2.947,7.572,2.784,11.63C68.618,66.907,71.064,70.301,76.286,71.325z"/>
		<path fill-rule="evenodd" clip-rule="evenodd" fill="#3F3F3F" d="M60.512,59.957c0.058,3.692,0.691,7.279,1.96,10.751
			c-0.467-0.126-0.979-0.167-1.394-0.389C54.57,66.831,54.482,65.158,60.512,59.957z"/>
	</g>
	<g>
		<path fill-rule="evenodd" clip-rule="evenodd" fill="#3B3837" d="M122.448,69.086c0,1.821-0.291,3.701,0.059,5.452
			c0.822,4.121-0.971,4.987-4.691,4.76c-2.488-0.152-3.571-0.674-3.427-3.368c0.204-3.798-0.05-7.617,0.08-11.421
			c0.119-3.474-0.628-6.393-3.308-8.92c-3.032-2.859,0.753-4.629,1.793-6.525c1.37-2.499,2.762,0.067,3.811,0.912
			C123.019,55.011,122.778,62.05,122.448,69.086z"/>
		<path fill-rule="evenodd" clip-rule="evenodd" fill="#0899D1" d="M107.424,49.156c-0.82,1.254,1.493,4.97-2.585,4.652
			c-3.659-0.286-3.182-3.911-3.509-6.173c-0.372-2.576,2.298-1.524,3.705-1.733C107.118,45.593,108.261,46.401,107.424,49.156z"/>
	</g>
	<g>
		<path fill-rule="evenodd" clip-rule="evenodd" fill="#3A3736" d="M199.337,77.581c-7.312,3.124-14.385,3.118-20.436-2.56
			c-5.194-4.874-6.522-11.089-4.376-17.88c2.12-6.708,8.803-11.494,15.916-11.639c7.097-0.144,13.389,4.341,15.886,11.324
			c-3.629,1.697-6.723,2.881-10.291-1.069c-3.436-3.804-9.546-2.535-12.636,1.635c-2.964,3.999-2.162,9.344,1.863,12.42
			c4.036,3.085,10.144,2.42,12.623-2.166c1.724-3.188,3.809-3.362,6.727-3.387c2.837-0.024,2.937,1.425,2.528,3.489
			C206.614,72.672,204.53,76.36,199.337,77.581z"/>
		<path fill-rule="evenodd" clip-rule="evenodd" fill="#159DD1" d="M199.337,77.581c3.619-2.473,6.126-5.828,7.805-9.835
			c0.073,2.463,0.248,4.925,0.18,7.38c-0.037,1.348,0.762,3.622-1.118,3.767C203.956,79.064,201.009,80.986,199.337,77.581z"/>
	</g>
	<g>
		<path fill-rule="evenodd" clip-rule="evenodd" fill="#3B3938" d="M221.491,62.93c-0.286-0.171-0.591-0.315-0.854-0.516
			c-6.984-5.306-6.791-8.951,0.732-13.95c8.718-5.794,19.413-2.795,24.884,6.977c-5.145,3.117-5.586,3.073-10.422-0.195
			c-3.836-2.593-7.512-2.09-10.974,0.819C224.549,58.751,223.668,61.158,221.491,62.93z"/>
		<path fill-rule="evenodd" clip-rule="evenodd" fill="#3B3837" d="M239.852,62.368c8.523,5.075,8.664,8.95,0.525,14.445
			c-6.742,4.551-16.336,3.538-21.815-2.445c-0.954-1.042-3.442-2.516-1.58-3.854c1.913-1.376,4.394-4.104,7.267-1.747
			c4.143,3.398,8.162,4.15,12.459,0.462C237.512,66.83,237.402,64.013,239.852,62.368z"/>
		<path fill-rule="evenodd" clip-rule="evenodd" fill="#0397D0" d="M239.852,62.368c-0.332,2.615-0.617,5.254-3.145,6.861
			c-5.072-2.102-10.145-4.201-15.217-6.301c0.768-2.464,1.177-5.104,3.367-6.868C229.855,58.166,234.854,60.267,239.852,62.368z"/>
	</g>
	<g>
		<path fill-rule="evenodd" clip-rule="evenodd" fill="#3B3837" d="M261.982,64.55c15.078-6.411,25.407,4.322,25.715,14.687
			c0.123,4.137-0.072,8.288,0.164,12.416c0.183,3.17-0.354,4.674-4.172,4.744c-4.236,0.078-3.981-2.146-3.906-4.953
			c0.098-3.654,0.16-7.318-0.016-10.967c-0.229-4.732-2.269-8.36-7.18-9.574c-4.504-1.114-7.621,1.016-10.042,4.664
			c-1.872,2.821-5.185,2.109-8.202-1.67C255.096,69.314,256.785,65.499,261.982,64.55z"/>
		<path fill-rule="evenodd" clip-rule="evenodd" fill="#0699D1" d="M261.982,64.55c-3.414,2.41-5.956,5.531-7.639,9.351
			c-0.074-13.976-0.07-27.949-0.276-41.919c-0.05-3.435,2.008-3.109,4.22-3.199c2.404-0.099,3.621,0.532,3.6,3.322
			C261.801,42.919,261.932,53.734,261.982,64.55z"/>
	</g>
</g>
</svg>
