<svg id="Layer_1" data-name="Layer 1" xmlns="http://www.w3.org/2000/svg" viewBox="0 0 1534.09 1402.51"><defs><style>.cls-1{fill:#04f;}.cls-2{fill:#0af;}.cls-3{fill:#0cf;}.cls-4{fill:blue;}.cls-5{fill:#fdfdfd;}.cls-6{fill:#08f;}.cls-7{fill:#06f;}.cls-8{fill:#ff315c;}.cls-9{fill:#ff7b31;}.cls-10{fill:#d80e5d;}</style></defs><title>Untitled-2</title><path class="cls-1" d="M491.67,374.62a1.32,1.32,0,0,0,.91-2c.14-2.37,1.67-4,3.14-5.61l0-.12c2.45-1.79,1.59-5.51,4.19-7.22l-.14.21c1.91-2.25,1.22-5.92,4.14-7.62l-.21.32c1.66-2.42.93-6.18,4.27-7.67l-.28.4c1.45-4.53,4.2-8.27,7.11-11.92l-.09.15c2-2.18,1.32-5.8,4-7.6l-.17.27c11.26-20.12,21.3-40.94,34.41-60l-.3.35c5.34-8.72,7.44-19.32,15.44-26.5l-.32.33c4.84-9,7.65-19.2,15.18-26.69l-.27.33c1.31-4.56,4.36-8.13,6.83-12h0c2.32-1.92,1.5-5.66,4.25-7.34l-.19.28c1.79-2.34,1.12-6,4.11-7.71l-.21.43a3.79,3.79,0,0,1,4.88,1.62c3,22.16-7.69,42.33-9.08,64.18-3,47.75,7.4,91.55,30.93,132.47q96,167,192.38,333.67c1.87,3.24,3.77,6.47,4.6,10.18,1.31,8-2.38,14.66-6.14,21.12C716,921.33,618.51,1092.71,519.5,1263.21c-3.66,6.29-5.2,17.88-17.74,14.15-2.89-5.48-1.6-11.08,0-16.43,18.21-60.36,1.19-116.19-23.24-170.45C451.28,1030,412,976.19,379.24,918.75,352,871.07,325,822.82,321,766.1c-3-41.53,1.84-82,17.48-120.86,2.59-8.31,5.8-16.3,11.77-22.87l-.24.32c13.5-25.85,27.17-51.61,43.87-75.6a1.88,1.88,0,0,0,1.13-2.47c.41-1.94,1.71-3.38,2.8-4.94a1.6,1.6,0,0,0,1-2.25c.26-2.24,1.75-3.78,3.08-5.4l.08-.18c2.54-1.72,1.65-5.43,4.16-7.16l-.1.18c2-2.2,1.27-5.87,4.13-7.59l-.2.31c1.71-2.4,1-6.12,4.23-7.68l-.28.39C417.35,503.72,420,496.69,425,491l-.15.23c7.52-10.64,10.25-24,19.38-33.75l-.3.34c5.23-8.79,7.81-19.11,15.31-26.59l-.3.34c9.05-18.21,18.43-36.24,30.32-52.83l-.37.41C489.05,377.16,490.7,376.1,491.67,374.62Z" transform="translate(-49.46 -34.12)"/><path class="cls-2" d="M1301.84,646.39l-.13,1.2.88.84c1.09,1.41,2.59,2.53,3.05,4.38l-.39-.41c3.13,1.53,2.35,5.33,4.35,7.51l-.12-.2c2.53,1.83,1.76,5.46,4.06,7.41s1.32,5.5,3.88,7.24l.1.19c1,1.53,2.61,2.62,3.2,4.44l-.37-.38c3,1.65,2.29,5.36,4.21,7.61l-.15-.21a266.58,266.58,0,0,1,22.36,38l-.29-.32c7.42,7.51,9.84,17.91,15.37,26.5l-.26-.31c7.21,7.63,9.75,18,15.3,26.54l-.25-.3c5.44,5.41,7.77,12.67,11.33,19.2l-.29-.37c3.26,1.48,2.48,5.28,4.36,7.56l-.17-.26c2.69,1.77,1.94,5.43,4.13,7.48l0-.08c2.29,1.89,1.46,5.49,4,7.27l.08.14c1.26,1.54,2.65,3,3.21,5a2.42,2.42,0,0,0,1.09,2.7c.89,1.39,1.83,2.74,2.79,4.08l-.25-.31c2.73,1.77,2,5.42,4.11,7.54l-.07-.13c4.61,5.85,9.42,11.57,11.15,19.1l-.18-.23c5.09,5.62,7.6,12.74,11.18,19.25l-.28-.31c7.46,7.47,9.77,17.93,15.42,26.45l-.25-.3c7.24,7.54,9.3,18.13,15.5,26.27l-.12-.17c4.83,5.74,7.23,12.9,11.19,19.15l-.21-.32c2.83,1.76,2.14,5.41,4.1,7.64l-.12-.2a40.88,40.88,0,0,1,7.27,11.81l-.26-.37c3.18,1.59,2.47,5.31,4.21,7.68l-.2-.3c2.83,1.76,2.15,5.41,4.1,7.64l-.13-.19a37.06,37.06,0,0,1,7.21,11.85l-.28-.36c3.31,1.5,2.57,5.26,4.27,7.66l-.22-.28c5.33,5.48,7.75,12.67,11.25,19.23l-.28-.3c6.3,10.86,16.81,19.69,16.24,33.84-9.81,1.53-14.64-6.1-20-11.71-101.15-106.42-288.44-86.36-362.72,57.83-28.59,55.5-61.83,108.58-93.12,162.66-3.64,6.29-5.52,15.9-16.26,15.21-4.31-4.8-3.53-10.46-2.3-16,16.68-74.38-2.48-141.79-39.32-206-54.88-95.73-112.13-190.07-166.5-286.09-6.12-10.81-13.44-21.26-10.88-34.8-.14-4.45.48-8.82,2.8-12.65,25.29-41.61,45.45-86.36,74.8-125.45,82.3-109.63,249-122.9,348.37-28.25,1.34,1.22,2.6,2.55,3.81,3.87.6.63,1.18,1.31,1.78,1.95,6.15,6.91,10.65,15.18,17.56,21.51a18.66,18.66,0,0,1,6.08,7.7l0-.11c2.8,1.71,2.08,5.29,4,7.5l-.09-.09a36,36,0,0,1,7.26,11.76l-.25-.37c3.24,1.57,2.55,5.27,4.16,7.73l-.24-.34c3,1.69,2.32,5.37,4.16,7.68l-.18-.26c2.7,1.72,1.9,5.43,4.2,7.37h0C1300.12,642.41,1301.61,644,1301.84,646.39Z" transform="translate(-49.46 -34.12)"/><path class="cls-3" d="M1039.62,1274.63c10.89-12.14,17.61-27,25.74-40.84,23-39.16,44.59-79.16,67.51-118.38,12.21-20.91,22.42-43,38-62,26.24-31.93,57.59-56.6,96.36-71.4a254.05,254.05,0,0,1,48.42-13.52,88.29,88.29,0,0,1,13-1.24c10.6-.22,21.2-.14,31.8-.23,41.12-.33,78.09,13.09,112.79,34a202.8,202.8,0,0,1,41.89,34.08c5.1,5.35,9.47,11.67,16.52,14.92,13.22,9.41,17.53,24.74,25.14,37.88l-.29-.43c4.84,8.37,8.48,17.29,11.89,26.31l-.14-.25c3.85,3,.79,8.27,3.89,11.5l-.14-.25c3.79,3.09,1,8.26,3.67,11.7l-.25-.38c5,4.54.8,11.35,4,16.34l.6,6c4.2,8.8-.76,18.68,3.22,27.52a44,44,0,0,0,0,19.93c-4.37,10.08,1.51,21.32-3.55,31.32l-.71,1.17.46,1.28c-2.44,3.82-.2,8.88-3.33,12.51l-.83,1.11.4,1.33c-2.44,3.81-.07,9-3.57,12.5l.08-.18c-3.23,3.15-.19,8.42-3.84,11.43l.09-.19c-3.35,6-3.56,13.32-8.1,18.78l.26-.39c-1.5,2.54-.93,6.13-4,7.89l.26-.37c-3.85,6.35-6,13.71-11.41,19.12l.23-.31c-2.25,4.1-4,8.55-8,11.38l.29-.36c-4,9.54-12.76,15.17-19,22.85l.45-.43a5.55,5.55,0,0,1-4.22,4.11l.41-.42a5.61,5.61,0,0,1-4.09,4.25l.42-.45c-7.69,6.25-13.33,14.95-22.82,19l.35-.28c-2.86,4-7.33,5.7-11.35,8l.29-.2c-5.48,5.29-12.82,7.45-19.11,11.39l.35-.24c-1.8,2.95-5.38,2.37-7.86,4l.37-.24c-5.51,4.39-12.82,4.6-18.72,8.07l.12,0c-3,3.5-8.28.47-11.38,3.8l.12,0c-3.2,3.42-8.27.72-11.65,3.57l.32-.19c-20.09,6.92-40.87,9.79-62,9.8q-244.53.12-489,.05c-3.87-.84-12.72,1.66-5.43-7.16,2.73-3.3,7.68-3.92,11.91-4.9C941,1401,993.39,1356.1,1027.83,1288.8a49.9,49.9,0,0,1,3-4.73,53.62,53.62,0,0,1,6.62-8.12C1038.12,1275.5,1038.87,1275.06,1039.62,1274.63Z" transform="translate(-49.46 -34.12)"/><path class="cls-4" d="M341.25,643.13c1.21,6.58-2.44,12.12-4,18.07C331.88,681.64,326,702,327,723.44c.09,1.87.44,3.9-.13,5.59-4.7,14.1-1.91,27.92-.27,42.23a239.25,239.25,0,0,0,20.09,73.4,962.31,962.31,0,0,0,72.78,130.45c11.69,17.59,21.94,36.16,32.5,54.49,7.77,13.49,14.85,27.37,22.45,41a323.46,323.46,0,0,1,28.78,70.85c7.22,25.76,13.21,51.84,11.37,78.95-1.06,15.56-5.42,30.52-9,45.6-1,4.27-2.31,8.37-2.09,12.8,3.5,4.18,1.35,8.15-.49,12.09-31.63,68-82.9,113.42-155,135.13-10.9,3.28-22.29,1.39-33.11,4.54-32.85,3.36-65.25,2.44-96.53-9.64l.13.06c-3.15-3.26-8.3-.34-11.42-3.7l.05,0c-3-3.49-8.39-.2-11.23-4l.22.12c-19.14-7.38-37.27-16.47-52.4-30.68l.34.27c-15.37-9.67-27.08-23.07-38.05-37.23l.13.18c-1.65-1.11-3.13-2.37-3.64-4.42l.41.39a201.18,201.18,0,0,1-41.72-82.59l.23.33c-12.22-52.3-11.12-103.61,11.39-153.33l-.25.34c2.67-8.18,4.82-16.63,11.62-22.71l-.29.32c7.78-15.72,16-31.18,26.36-45.43l-.33.36c.46-1.82,2-2.92,3-4.37a1.32,1.32,0,0,0,.86-2c.17-2.37,1.67-4,3.22-5.53l0-.07c2.34-1.91,1.57-5.47,3.93-7.36l0,.08c2.14-2,1.29-5.9,4.43-7.34l-.34.41c.33-1.86,1.9-2.92,2.82-4.4a1.4,1.4,0,0,0,1-2.09c.19-2.33,1.68-3.91,3.15-5.5l.07-.15c2.43-1.79,1.55-5.53,4.23-7.19l-.15.22c1.86-2.28,1.12-6,4.23-7.58l-.25.34c5.37-8.69,8-19,15.27-26.55l-.24.32c13.16-24.25,26.12-48.61,41.72-71.44l-.29.32c3.28-6.69,5.81-13.82,11.21-19.28l-.21.28c1.62-2.44.84-6.23,4.31-7.62l-.41.45c.24-2,1.86-3.2,2.95-4.69l.09-.22c2.54-1.7,1.63-5.43,4.19-7.12l-.11.18c1.94-2.23,1.24-5.86,4.08-7.61l-.19.28c1.75-2.36,1-6.13,4.3-7.6l-.4.45c.39-2,1.94-3.16,3.17-4.56l.06-.11c2.36-1.87,1.54-5.52,4.07-7.28l-.09.15c1.95-2.2,1.24-5.86,4.11-7.57l-.2.29C256.06,785,273.55,751.6,294.14,720l-.26.32c1.56-4.45,4.25-8.22,7.13-11.87l-.06.12c2-2.15,1.32-5.79,4.08-7.55l-.17.26c1.8-2.33,1.07-6,4.21-7.63l-.24.36A47.23,47.23,0,0,1,316,682.21l0,.08c2.09-2.1,1.35-5.75,4.09-7.5l-.16.25c1.83-2.29,1-6.12,4.39-7.51l-.27.37c1.34-4.55,4.25-8.2,6.94-12l0,.05c2.19-2,1.34-5.85,4.4-7.33l-.24.36C336.15,646,337.5,643.32,341.25,643.13Z" transform="translate(-49.46 -34.12)"/><path class="cls-5" d="M218.33,1420.88c14,2.46,27.88,5.56,41.95,7.21,19.7,2.3,39.52,1.82,59.29.06,27.22-3,54.35-6,81.9-5.91,139.92.49,279.85.17,419.77.31,10.46,0,21.38-1.91,31,4.48,6.83.35,13.66,1,20.49,1q235.76-.13,471.52-.34a270.51,270.51,0,0,0,57.46-6.29c3-.65,6.16-.6,9.25-.88-2.22,4.73-7.15,5.11-11.14,5.89-12.15,2.38-24.42,4.19-36.71,5.77-4.91.64-10,.11-15,.11q-504.45,0-1008.9,0c-10.56,0-21,0-31.54,2.73-8.22,2.16-17.47,1.69-26.09.75-18.48-2-36.86-5-55.25-7.77C222.38,1427.47,219.88,1424.54,218.33,1420.88Z" transform="translate(-49.46 -34.12)"/><path class="cls-5" d="M686.86,78.07c7.86-12.43,21.49-16.44,33.54-22.55a175.78,175.78,0,0,1,24.32-9.59c14.77-4.92,29.81-8.8,45.54-9,2.5,0,5.22.59,7.47-.17,14.12-4.75,27.91-2.06,42.24-.35,17.39,2.07,34.41,4.63,50.95,10.39,5.88,2,12,3.49,17.8,5.71s11.86,4.31,15,10.48l-2.43,1.84c-11.13,2-20.65-3.59-30.53-6.87Q797.19,26.88,710,72.47c-6.47,3.39-12.38,8.75-20.62,7.34Z" transform="translate(-49.46 -34.12)"/><path class="cls-5" d="M72.77,1106.26c-1.88,6.51-3.43,13.14-5.7,19.51-13.44,37.76-14.06,76.38-8.2,115.49.91,6.1,1.67,12.22,2.51,18.33-6.63-8-7.49-17.75-8.07-27.42s.81-19.78-3.21-29.25a10.12,10.12,0,0,1-.46-5.49c5-26.48,4.3-54,15-79.4C66.58,1113.54,67.55,1108.45,72.77,1106.26Z" transform="translate(-49.46 -34.12)"/><path class="cls-5" d="M294.14,720c-4.28,13.1-12.63,24.06-19.21,35.94-9.9,17.89-20.42,35.46-30.68,53.15-1.85,3.19-3.27,6.73-6.85,8.54-.32-7.94,4.08-14.34,8-20.36,5.07-7.8,9.17-16,13.72-24.09,8.8-15.54,17.9-30.9,26.79-46.39C287.84,723.47,290.14,720.77,294.14,720Z" transform="translate(-49.46 -34.12)"/><path class="cls-5" d="M612,160.67c2.8-15.9,13.6-27.39,23.09-39.11,9.61-11.87,21.48-21.92,32.39-32.73,2.3-2.28,5.3-3,8.4-3.26l.95,2.49c-1.39,7.93-7.62,12.44-12.81,17.5-15,14.63-29.22,29.84-40,48-2.22,3.76-4.88,7.12-9.56,8Z" transform="translate(-49.46 -34.12)"/><path class="cls-5" d="M393.85,547.09c-13.74,25.71-26.46,52-43.87,75.59,1.65-13.36,9.58-24.1,15.48-35.56,6.22-12.1,14.11-23.33,21.07-35A9.42,9.42,0,0,1,393.85,547.09Z" transform="translate(-49.46 -34.12)"/><path class="cls-5" d="M61.15,1259.26c1.62,3.29,3.7,6.44,4.79,9.9,7.75,24.52,19.6,46.9,34.7,67.64,1.06,1.46,1.49,3.36,2.22,5-4.62-.78-7.72-3.89-10.07-7.47-11.8-18-22-36.8-29.3-57.13A37.68,37.68,0,0,1,61.15,1259.26Z" transform="translate(-49.46 -34.12)"/><path class="cls-5" d="M1137.46,359.29c8,4.14,9.51,12.9,13.6,19.68,9.66,16,18.62,32.38,27.64,48.74,1.77,3.21,2.53,7,3.76,10.48l-2.54.93c-12.71-4.88-15.24-17.89-20.44-27.89-8.48-16.29-23.29-29.77-23.78-49.86C1136.28,360.67,1136.87,360,1137.46,359.29Z" transform="translate(-49.46 -34.12)"/><path class="cls-5" d="M1275.57,600l-5.57-4c-7.46-6.63-11-16.08-17.22-23.64a35.23,35.23,0,0,1-2.69-4.06c-1.25-2.11-2.64-4.14-4-6.19-5.3-10.27-13.94-19.21-12.84-32l1.7-1.9c8,4.06,9.34,12.86,13.58,19.53,7.63,12,14.71,24.38,21.68,36.79C1272.9,589.21,1276.26,594,1275.57,600Z" transform="translate(-49.46 -34.12)"/><path class="cls-5" d="M1556.77,1088c-8.8-7.25-11.32-18.67-18.08-27.29-2.62-3.33-4.73-7.06-7.06-10.6q-5.27-10.35-10.54-20.7c-2.15-4.24-5.43-8-5.88-13,4,.69,6.34,3.34,8.22,6.7,2.68,4.81,5.55,9.53,8.29,14.31,7,12.22,14.11,24.39,20.92,36.73C1555,1078.34,1557.75,1082.64,1556.77,1088Z" transform="translate(-49.46 -34.12)"/><path class="cls-5" d="M196.76,888.92c-7.15,17.82-18.13,33.55-27.69,50-4.26,7.35-6.61,16.09-14,21.4.59-3,.48-6.31,1.88-8.82q16.54-29.68,33.72-59C191.67,890.72,194.67,890.09,196.76,888.92Z" transform="translate(-49.46 -34.12)"/><path class="cls-5" d="M553.05,266.21c-9.52,21.12-20.56,41.37-34.42,60,.83-10.33,7.07-18.46,11.44-27.29,4.11-8.33,9.37-16.09,13.82-24.27C546.05,270.69,548.14,267,553.05,266.21Z" transform="translate(-49.46 -34.12)"/><path class="cls-5" d="M489.24,378.72c-8.72,18.4-17.76,36.63-30.32,52.83-.93-6.69,3-11.83,5.87-17.15q8.74-16.22,18.35-32C484.24,380.63,487.16,379.93,489.24,378.72Z" transform="translate(-49.46 -34.12)"/><path class="cls-5" d="M143.68,1382.66l52.4,30.68a24.83,24.83,0,0,1-12.63-2.18,214.19,214.19,0,0,1-32.21-18.34C147.67,1390.36,144.46,1387.34,143.68,1382.66Z" transform="translate(-49.46 -34.12)"/><path class="cls-5" d="M106,1345.7l38,37.23c-3.19.39-6.35.17-8.75-2.18q-13.33-13.11-26.5-26.4C106.41,1352,105.93,1348.9,106,1345.7Z" transform="translate(-49.46 -34.12)"/><path class="cls-5" d="M110.21,1038.78c-7.16,16.09-15.33,31.59-26.36,45.43,1.42-12.85,8.4-23.22,15.27-33.56C102.11,1046.14,103.6,1040,110.21,1038.78Z" transform="translate(-49.46 -34.12)"/><path class="cls-5" d="M953.54,81.79c11.14,2.63,17.86,11.94,26.79,17.9a15,15,0,0,1,7.08,12.19l-2.43,1c-13-7-26.15-14-32.45-28.65C952.86,83.42,953.2,82.6,953.54,81.79Z" transform="translate(-49.46 -34.12)"/><path class="cls-5" d="M1346.77,724.05c-9.8-11.3-16.62-24.36-22.36-38C1335.79,696.38,1344.37,708.4,1346.77,724.05Z" transform="translate(-49.46 -34.12)"/><path class="cls-5" d="M444.21,457.46c-4.77,12.22-10.71,23.77-19.38,33.75,1.95-11.8,8.16-21.65,14.54-31.38C440.22,458.54,442.56,458.23,444.21,457.46Z" transform="translate(-49.46 -34.12)"/><path class="cls-5" d="M1036.56,186.45c.6.19,1.36.21,1.76.6,8.53,8.28,15.42,17.49,16.58,29.87l-2.39,1c-12.21-6-15.16-17.53-17.55-29.4C1035.49,187.8,1036,187.12,1036.56,186.45Z" transform="translate(-49.46 -34.12)"/><path class="cls-5" d="M1054.9,216.92c8.34,6.84,14.81,14.75,15,26.25l-2.54.91c-10.73-5.59-15.61-14.19-13.49-26.36Z" transform="translate(-49.46 -34.12)"/><path class="cls-5" d="M1489.1,1383c6.77-7.34,13.7-14.49,22.82-19C1503.6,1377.53,1500.09,1380.47,1489.1,1383Z" transform="translate(-49.46 -34.12)"/><path class="cls-5" d="M1463.42,926.2c-7.88-7.15-11.82-16.63-15.49-26.27C1458.53,905.48,1460.72,916,1463.42,926.2Z" transform="translate(-49.46 -34.12)"/><path class="cls-5" d="M1448.17,900.23c-7.31-7.55-12.05-16.6-15.42-26.45C1443.66,879.23,1445.9,889.74,1448.17,900.23Z" transform="translate(-49.46 -34.12)"/><path class="cls-5" d="M1519,1356.86c4.51-9.15,11.54-16.18,19-22.84-.36,2.4.09,5.45-1.23,7.1C1531.79,1347.37,1527.19,1354.24,1519,1356.86Z" transform="translate(-49.46 -34.12)"/><path class="cls-5" d="M341.25,643.13,335,649c2-10.64,4.6-20.91,15.18-26.64C349.66,630.34,342.17,635.32,341.25,643.13Z" transform="translate(-49.46 -34.12)"/><path class="cls-5" d="M459.22,431.21a65.65,65.65,0,0,1-15.31,26.59C445.84,447.11,448.21,436.67,459.22,431.21Z" transform="translate(-49.46 -34.12)"/><path class="cls-5" d="M568.19,240.06c-4,9.5-7.6,19.24-15.44,26.49C554.68,255.85,556.79,245.25,568.19,240.06Z" transform="translate(-49.46 -34.12)"/><path class="cls-5" d="M583.05,213.7c-3.69,9.67-8.08,19-15.18,26.68C569.48,229.53,572,219.17,583.05,213.7Z" transform="translate(-49.46 -34.12)"/><path class="cls-5" d="M1069.91,243.17c9,6.44,12.12,16.29,15,26.24l-2.54.93c-10.81-5.6-15.59-14.26-13.42-26.44Z" transform="translate(-49.46 -34.12)"/><path class="cls-5" d="M155.28,960A66.14,66.14,0,0,1,140,986.59C142,976,144.47,965.6,155.28,960Z" transform="translate(-49.46 -34.12)"/><path class="cls-5" d="M1361.85,750.23a61.25,61.25,0,0,1-15.36-26.5C1357.36,729.23,1359.68,739.69,1361.85,750.23Z" transform="translate(-49.46 -34.12)"/><path class="cls-5" d="M1376.89,776.46a66.22,66.22,0,0,1-15.3-26.54C1372.27,755.55,1374.72,765.92,1376.89,776.46Z" transform="translate(-49.46 -34.12)"/><path class="cls-5" d="M1568.37,1113.83a60.49,60.49,0,0,1-11.88-26.31C1564.68,1094.38,1568.73,1103.11,1568.37,1113.83Z" transform="translate(-49.46 -34.12)"/><path class="cls-5" d="M1579.7,1237.31c.17-10.55-.22-21.16,3.55-31.31.1,7.84.23,15.68.27,23.53A9.18,9.18,0,0,1,1579.7,1237.31Z" transform="translate(-49.46 -34.12)"/><path class="cls-5" d="M84.14,1083.89c-2.35,8.35-5.67,16.2-11.62,22.71C71.54,1096.55,74.1,1088.31,84.14,1083.89Z" transform="translate(-49.46 -34.12)"/><path class="cls-5" d="M991,115.53c6.84,4.85,13.89,9.52,15.13,18.86l-2.58,1c-8.61-2.74-14.65-7.56-14.19-17.62C989.93,117,990.47,116.26,991,115.53Z" transform="translate(-49.46 -34.12)"/><path class="cls-5" d="M425,491c-1.83,7.51-5.21,14.13-11.09,19.32C414.07,501.84,416.72,494.8,425,491Z" transform="translate(-49.46 -34.12)"/><path class="cls-5" d="M207.68,870a43.15,43.15,0,0,1-11.22,19.27C196.5,880.66,199,873.5,207.68,870Z" transform="translate(-49.46 -34.12)"/><path class="cls-5" d="M923.69,63c7.54,1.59,14.49,4.17,18.79,11.2l-2,1.76c-9.09.88-15.83-1.84-17.9-11.71Z" transform="translate(-49.46 -34.12)"/><path class="cls-5" d="M1084.93,269.41c7.27,4.16,9.73,11.19,11.21,18.81l-2.55.88c-8.37-3.79-13.08-9.39-9.42-19.11Z" transform="translate(-49.46 -34.12)"/><path class="cls-5" d="M1100.15,295.38c6.75,4.58,9.63,11.4,11,19.08l-2.39.94c-8.48-3.2-11.74-9.41-10.46-18.22Z" transform="translate(-49.46 -34.12)"/><path class="cls-5" d="M1182.46,438.19c7.25,4.18,9.73,11.2,11.21,18.81l-2.56.88c-8.37-3.84-13.23-9.4-9.31-19.2Z" transform="translate(-49.46 -34.12)"/><path class="cls-5" d="M1515.48,1016.67a39.9,39.9,0,0,1-11.25-19.23C1512.79,1001,1515.29,1008.18,1515.48,1016.67Z" transform="translate(-49.46 -34.12)"/><path class="cls-5" d="M1223.75,509.31c7.06,4.29,9.65,11.24,11.2,18.81l-1.25,1.13c-9.83-2.11-12.58-8.84-11.71-17.93Z" transform="translate(-49.46 -34.12)"/><path class="cls-5" d="M1583.24,1186.06c-3.58-8.88-3.21-18.23-3.22-27.52a9.49,9.49,0,0,1,3.53,7.83C1583.49,1172.93,1583.35,1179.5,1583.24,1186.06Z" transform="translate(-49.46 -34.12)"/><path class="cls-5" d="M1388,795.36c-6-5.12-9-11.93-11.33-19.2C1385.31,779.67,1387.71,786.88,1388,795.36Z" transform="translate(-49.46 -34.12)"/><path class="cls-5" d="M1545.49,1323.3c2.13-7.37,5.25-14.15,11.41-19.12C1556.4,1312.53,1554.06,1319.78,1545.49,1323.3Z" transform="translate(-49.46 -34.12)"/><path class="cls-5" d="M1474.49,945.18c-6.22-4.93-9.41-11.63-11.19-19.15C1471.32,929.9,1473.89,937,1474.49,945.18Z" transform="translate(-49.46 -34.12)"/><path class="cls-5" d="M1422,855.07a45.48,45.48,0,0,1-11.15-19.1C1418.9,839.83,1423.44,845.71,1422,855.07Z" transform="translate(-49.46 -34.12)"/><path class="cls-5" d="M1433,874.09a39.25,39.25,0,0,1-11.18-19.25C1430.17,858.58,1432.77,865.66,1433,874.09Z" transform="translate(-49.46 -34.12)"/><path class="cls-5" d="M1459.28,1401.9c4.93-6.2,11.82-9.13,19.11-11.39C1474.79,1399,1467.57,1401.33,1459.28,1401.9Z" transform="translate(-49.46 -34.12)"/><path class="cls-5" d="M1560.35,1297.05a32.3,32.3,0,0,1,8.1-18.78C1568.85,1285.87,1567.44,1292.68,1560.35,1297.05Z" transform="translate(-49.46 -34.12)"/><path class="cls-5" d="M1433.42,1413.46c5.46-4.49,11.51-7.63,18.72-8.07C1447.75,1412.38,1440.94,1413.74,1433.42,1413.46Z" transform="translate(-49.46 -34.12)"/><path class="cls-5" d="M1013.7,145.47c6.27,3,7.51,8.67,7.74,14.85l-2.19,1.21c-6.43-2.7-8.5-7.62-7.27-14.22C1012.55,146.69,1013.12,146.08,1013.7,145.47Z" transform="translate(-49.46 -34.12)"/><path class="cls-5" d="M1537.69,1334.37a15.51,15.51,0,0,1,8-11.37C1546.18,1329,1543.83,1333,1537.69,1334.37Z" transform="translate(-49.46 -34.12)"/><path class="cls-5" d="M330.92,655.93c-.67,4.94-2.71,9.09-6.95,12C322.89,661.94,325.56,658.15,330.92,655.93Z" transform="translate(-49.46 -34.12)"/><path class="cls-5" d="M1500.46,990.42a19.23,19.23,0,0,1-7.21-11.85C1498.79,980.61,1501.43,984.42,1500.46,990.42Z" transform="translate(-49.46 -34.12)"/><path class="cls-5" d="M1485.53,964.11a15.51,15.51,0,0,1-7.27-11.81C1483.77,954.34,1486.39,958.15,1485.53,964.11Z" transform="translate(-49.46 -34.12)"/><path class="cls-5" d="M1478.1,1390.71a16.81,16.81,0,0,1,11.35-8C1488.07,1388.75,1484.06,1391.11,1478.1,1390.71Z" transform="translate(-49.46 -34.12)"/><path class="cls-5" d="M514.85,333.39a16.24,16.24,0,0,1-7.11,11.92C506.73,339.32,509.36,335.5,514.85,333.39Z" transform="translate(-49.46 -34.12)"/><path class="cls-5" d="M589.61,202a18.25,18.25,0,0,1-6.83,12C581.69,208.11,584.4,204.35,589.61,202Z" transform="translate(-49.46 -34.12)"/><path class="cls-5" d="M942.48,74.22a12.37,12.37,0,0,1,11.06,7.57l-.7.88c-7.14,2.65-10.53-.4-11.3-7.43Z" transform="translate(-49.46 -34.12)"/><path class="cls-5" d="M1006.15,134.39a12.34,12.34,0,0,1,7.55,11.08l-1.09,1c-6.93-.86-10-4.25-7.4-11.33Z" transform="translate(-49.46 -34.12)"/><path class="cls-5" d="M1115.14,321.64c4.4,2.63,7.17,6.28,7.24,11.6l-2.63.81c-5.07-1.64-7.63-4.83-6.44-10.36Z" transform="translate(-49.46 -34.12)"/><path class="cls-5" d="M1130.13,347.9c4.37,2.56,7.07,6.19,7.33,11.39l-1.11,1c-6.6-.51-9.2-4.07-8-10.52Z" transform="translate(-49.46 -34.12)"/><path class="cls-5" d="M1286.68,619.06c-4.54-2.62-6.76-6.66-7.25-11.76C1285,609.25,1287.59,613.08,1286.68,619.06Z" transform="translate(-49.46 -34.12)"/><path class="cls-5" d="M301,708.48a19.7,19.7,0,0,1-7.13,11.86C293,714.4,295.57,710.59,301,708.48Z" transform="translate(-49.46 -34.12)"/><path class="cls-5" d="M316,682.21A16.5,16.5,0,0,1,308.83,694C308,688.15,310.58,684.34,316,682.21Z" transform="translate(-49.46 -34.12)"/><path class="cls-5" d="M1579.42,1152.49c-3.65-4.88-4.49-10.45-4-16.34C1582.22,1140.25,1579.2,1146.77,1579.42,1152.49Z" transform="translate(-49.46 -34.12)"/><path class="cls-5" d="M195.86,1413.22a15.13,15.13,0,0,1,11.23,4C202.88,1417.2,198.35,1418.05,195.86,1413.22Z" transform="translate(-49.46 -34.12)"/><path class="cls-5" d="M1410.63,1420.73c3.23-3.33,7.32-3.85,11.65-3.57C1419.47,1421.86,1415,1421,1410.63,1420.73Z" transform="translate(-49.46 -34.12)"/><path class="cls-5" d="M1422.16,1417.21c3.17-3.13,7.07-4.06,11.38-3.8C1430.87,1418,1426.37,1417.2,1422.16,1417.21Z" transform="translate(-49.46 -34.12)"/><path class="cls-5" d="M1572.12,1267.21a16.49,16.49,0,0,1,3.57-12.49C1575.92,1259.28,1577.16,1264.15,1572.12,1267.21Z" transform="translate(-49.46 -34.12)"/><path class="cls-5" d="M1572.12,1125.08c-3.37-3.13-4.22-7.12-3.89-11.5C1573.17,1116.18,1572.25,1120.76,1572.12,1125.08Z" transform="translate(-49.46 -34.12)"/><path class="cls-5" d="M1568.36,1278.46a14.26,14.26,0,0,1,3.84-11.43C1572.25,1271.28,1573.13,1275.82,1568.36,1278.46Z" transform="translate(-49.46 -34.12)"/><path class="cls-5" d="M207,1417.24c4.26-.18,8.17.74,11.42,3.7C214.24,1421,209.77,1421.8,207,1417.24Z" transform="translate(-49.46 -34.12)"/><path class="cls-5" d="M1575.65,1136.53c-3.62-3.15-4-7.3-3.67-11.7C1577,1127.54,1576,1132.13,1575.65,1136.53Z" transform="translate(-49.46 -34.12)"/><path class="cls-5" d="M1576.12,1252.27a16,16,0,0,1,3.33-12.5C1579.7,1244.3,1580.84,1249.06,1576.12,1252.27Z" transform="translate(-49.46 -34.12)"/><path class="cls-5" d="M218.6,851a8.74,8.74,0,0,1-4.19,7.12C214.59,855.07,215.38,852.34,218.6,851Z" transform="translate(-49.46 -34.12)"/><path class="cls-5" d="M226.68,836.29c-.18,3.24-1.24,6-4.3,7.6C222.15,840.41,222.67,837.36,226.68,836.29Z" transform="translate(-49.46 -34.12)"/><path class="cls-5" d="M1024.79,164.28c2.89,1.73,3.66,4.53,3.85,7.63l-2.44.7c-2.61-1.33-3.42-3.51-2.93-6.29Z" transform="translate(-49.46 -34.12)"/><path class="cls-5" d="M1208.78,483c2.73,1.84,3.48,4.64,3.69,7.69l-2.48.72c-2.65-1.39-3.42-3.61-2.86-6.42Z" transform="translate(-49.46 -34.12)"/><path class="cls-5" d="M1219.82,501.89c2.87,1.65,3.62,4.42,3.93,7.42l-1,.9c-3.4-.53-4.58-2.71-4.4-5.91Z" transform="translate(-49.46 -34.12)"/><path class="cls-5" d="M1028.64,171.91c2.86,1.62,3.57,4.38,3.92,7.35l-2.28,1c-3.64-1.81-4.62-4.37-2.23-7.89Z" transform="translate(-49.46 -34.12)"/><path class="cls-5" d="M1032.56,179.26c2.64,1.67,3.39,4.39,4,7.19l-.49.48c-6.46.35-6.07-3-4-7.33Z" transform="translate(-49.46 -34.12)"/><path class="cls-5" d="M1096.14,288.22c2.84,1.55,3.54,4.28,4,7.16l-.67.6c-5.31.09-5.61-3-4.36-7Z" transform="translate(-49.46 -34.12)"/><path class="cls-5" d="M1111.15,314.46c2.84,1.56,3.53,4.3,4,7.18l-.67.6c-5.44-.18-5.76-3.17-4-7.29Z" transform="translate(-49.46 -34.12)"/><path class="cls-5" d="M222.57,843.61c-.17,3.18-1,6-4.08,7.61C218.36,847.88,218.91,844.91,222.57,843.61Z" transform="translate(-49.46 -34.12)"/><path class="cls-5" d="M1212.47,490.71c2.8,1.6,3.55,4.34,4,7.25l-2.26,1.09c-3.77-1.76-4.75-4.34-2.32-7.92Z" transform="translate(-49.46 -34.12)"/><path class="cls-5" d="M1204.82,475.62c2.86,1.65,3.62,4.42,4,7.4l-1,.86c-3.47-.43-4.64-2.63-4.48-5.84Z" transform="translate(-49.46 -34.12)"/><path class="cls-5" d="M1122.38,333.24c2.91,1.66,3.58,4.45,3.77,7.48l-2.18.81c-3.42-1.61-4.25-4.13-2.6-7.5Z" transform="translate(-49.46 -34.12)"/><path class="cls-5" d="M1126.15,340.72c2.83,1.56,3.53,4.3,4,7.19l-.67.6c-5.41-.19-5.74-3.17-4-7.29Z" transform="translate(-49.46 -34.12)"/><path class="cls-5" d="M1197.6,464.21c2.64,1.84,3.43,4.6,3.77,7.58l-2.47.91c-2.76-1.35-3.56-3.59-3-6.48Z" transform="translate(-49.46 -34.12)"/><path class="cls-5" d="M1193.67,457c2.84,1.57,3.52,4.32,3.93,7.21l-.77.7c-5.15-.38-5.63-3.27-3.94-7.33Z" transform="translate(-49.46 -34.12)"/><path class="cls-5" d="M324.25,667.53c-.15,3.27-1.34,5.93-4.39,7.51C319.68,671.57,320.21,668.52,324.25,667.53Z" transform="translate(-49.46 -34.12)"/><path class="cls-5" d="M335.29,648.65a8.2,8.2,0,0,1-4.4,7.33C330.9,652.66,331.53,649.71,335.29,648.65Z" transform="translate(-49.46 -34.12)"/><path class="cls-5" d="M406.11,524.69c0,3.18-1.68,5.41-4.16,7.16C402.13,528.76,402.91,526,406.11,524.69Z" transform="translate(-49.46 -34.12)"/><path class="cls-5" d="M211.78,862.62c-.42,3.11-1.29,6-4.32,7.62C207.16,866.71,207.64,863.62,211.78,862.62Z" transform="translate(-49.46 -34.12)"/><path class="cls-5" d="M410.14,517.28c-.07,3.25-1.2,5.91-4.13,7.58C405.91,521.53,406.47,518.56,410.14,517.28Z" transform="translate(-49.46 -34.12)"/><path class="cls-5" d="M414.17,509.91c-.2,3.22-1.27,6-4.23,7.68C409.69,514.11,410.2,511.06,414.17,509.91Z" transform="translate(-49.46 -34.12)"/><path class="cls-5" d="M320,674.79a8.75,8.75,0,0,1-4.09,7.5C315.88,679,316.58,676.16,320,674.79Z" transform="translate(-49.46 -34.12)"/><path class="cls-5" d="M500,359.67c-.07,3.18-1.72,5.44-4.19,7.22C495.91,363.76,496.69,361,500,359.67Z" transform="translate(-49.46 -34.12)"/><path class="cls-5" d="M504,352.26c-.09,3.24-1.1,6-4.14,7.62C499.69,356.52,500.24,353.53,504,352.26Z" transform="translate(-49.46 -34.12)"/><path class="cls-5" d="M508,344.91c-.17,3.25-1.27,6-4.27,7.67C503.47,349.08,504,346,508,344.91Z" transform="translate(-49.46 -34.12)"/><path class="cls-5" d="M518.81,325.94a8.52,8.52,0,0,1-4,7.6C514.68,330.24,515.36,327.35,518.81,325.94Z" transform="translate(-49.46 -34.12)"/><path class="cls-5" d="M309.07,693.68c-.29,3.16-1.18,6-4.21,7.63C304.66,697.88,305.18,694.85,309.07,693.68Z" transform="translate(-49.46 -34.12)"/><path class="cls-5" d="M593.86,194.66a8.84,8.84,0,0,1-4.25,7.34C589.7,198.79,590.45,196,593.86,194.66Z" transform="translate(-49.46 -34.12)"/><path class="cls-5" d="M597.78,187.23c-.17,3.21-1,6.07-4.11,7.71C593.47,191.53,594,188.51,597.78,187.23Z" transform="translate(-49.46 -34.12)"/><path class="cls-5" d="M600.85,187c-1.09.26-2.18.48-3.28.69-.42-3.37,0-6.4,3.23-8.37.51.54,1,1.09,1.54,1.63a7.55,7.55,0,0,1,0,4.39Z" transform="translate(-49.46 -34.12)"/><path class="cls-5" d="M305,701.05c-.22,3.14-1.21,5.85-4.08,7.55C300.88,705.31,301.57,702.43,305,701.05Z" transform="translate(-49.46 -34.12)"/><path class="cls-5" d="M604.18,175.4c.41-3,1.21-5.69,3.79-7.55l1.73,1.31a6.83,6.83,0,0,1-.08,6.24,4.65,4.65,0,0,1-3.84,1.46Z" transform="translate(-49.46 -34.12)"/><path class="cls-5" d="M608,167.85c.46-2.88,1.15-5.62,4-7.18l.61.43c1.89,4.14,1.52,7.09-3.89,7.37Z" transform="translate(-49.46 -34.12)"/><path class="cls-5" d="M675.83,85.57c1.54-2.84,4.26-3.6,7.15-4.08l1.18,2.09c-1.36,3.83-3.94,4.64-7.5,3Z" transform="translate(-49.46 -34.12)"/><path class="cls-5" d="M237.6,817.37c-.1,3.21-1.27,5.85-4.11,7.57C233.36,821.61,233.92,818.64,237.6,817.37Z" transform="translate(-49.46 -34.12)"/><path class="cls-5" d="M233.58,824.79a7.79,7.79,0,0,1-4.07,7.29C229.59,828.93,230.33,826.15,233.58,824.79Z" transform="translate(-49.46 -34.12)"/><path class="cls-5" d="M1309.6,659.91a8.79,8.79,0,0,1-4.34-7.5C1309.11,653.51,1309.68,656.52,1309.6,659.91Z" transform="translate(-49.46 -34.12)"/><path class="cls-5" d="M120.91,1019.79c-.12,3.09-1.11,5.71-3.93,7.36C117.05,1024,117.75,1021.26,120.91,1019.79Z" transform="translate(-49.46 -34.12)"/><path class="cls-5" d="M1313.54,667.12c-2.82-1.67-3.9-4.28-4.06-7.41C1312.75,661.13,1313.46,664,1313.54,667.12Z" transform="translate(-49.46 -34.12)"/><path class="cls-5" d="M1317.42,674.36c-2.69-1.67-3.74-4.21-3.88-7.24C1316.52,668.63,1317.24,671.35,1317.42,674.36Z" transform="translate(-49.46 -34.12)"/><path class="cls-5" d="M1324.56,686.22c-3-1.63-3.82-4.51-4.21-7.61C1324.15,679.82,1324.69,682.84,1324.56,686.22Z" transform="translate(-49.46 -34.12)"/><path class="cls-5" d="M1392,802.55a8.49,8.49,0,0,1-4.36-7.56C1391.65,796.06,1392.19,799.11,1392,802.55Z" transform="translate(-49.46 -34.12)"/><path class="cls-5" d="M1396,809.77a8.68,8.68,0,0,1-4.13-7.48C1395.26,803.67,1396,806.53,1396,809.77Z" transform="translate(-49.46 -34.12)"/><path class="cls-5" d="M1399.92,817a8,8,0,0,1-4-7.27C1399,811.16,1399.75,813.9,1399.92,817Z" transform="translate(-49.46 -34.12)"/><path class="cls-5" d="M1411,836.1c-2.77-1.75-3.86-4.42-4.11-7.54C1410.28,829.94,1411,832.82,1411,836.1Z" transform="translate(-49.46 -34.12)"/><path class="cls-5" d="M1451.77,1405.63c1.75-3,4.5-4.11,7.86-4C1458.27,1405.48,1455.23,1406,1451.77,1405.63Z" transform="translate(-49.46 -34.12)"/><path class="cls-5" d="M1478.38,952.5c-2.82-1.77-4-4.44-4.1-7.64C1477.94,946.17,1478.5,949.16,1478.38,952.5Z" transform="translate(-49.46 -34.12)"/><path class="cls-5" d="M1489.48,971.42c-3-1.66-4-4.45-4.2-7.68C1489.21,964.91,1489.72,968,1489.48,971.42Z" transform="translate(-49.46 -34.12)"/><path class="cls-5" d="M1493.38,978.76c-2.91-1.72-3.9-4.46-4.1-7.64C1493,972.43,1493.5,975.42,1493.38,978.76Z" transform="translate(-49.46 -34.12)"/><path class="cls-5" d="M1504.45,997.72c-3-1.68-4-4.49-4.27-7.66C1504.22,991.16,1504.71,994.23,1504.45,997.72Z" transform="translate(-49.46 -34.12)"/><path class="cls-5" d="M1556.64,1304.55c-.14-3.36.9-6.14,4-7.88C1561,1300.16,1560.54,1303.22,1556.64,1304.55Z" transform="translate(-49.46 -34.12)"/><path class="cls-5" d="M140.26,986.25c-.07,3.27-1.21,6-4.23,7.58C135.86,990.42,136.4,987.41,140.26,986.25Z" transform="translate(-49.46 -34.12)"/><path class="cls-5" d="M136.18,993.61c0,3.21-1.68,5.47-4.23,7.19C132.08,997.65,132.85,994.88,136.18,993.61Z" transform="translate(-49.46 -34.12)"/><path class="cls-5" d="M125.29,1012.53a8.31,8.31,0,0,1-4.43,7.34C120.86,1016.53,121.48,1013.57,125.29,1012.53Z" transform="translate(-49.46 -34.12)"/><path class="cls-5" d="M1279.51,607.39c-3-1.63-4.13-4.22-4-7.5C1279.08,601.22,1279.68,604.1,1279.51,607.39Z" transform="translate(-49.46 -34.12)"/><path class="cls-5" d="M1294.51,633.76c-3-1.71-4.09-4.4-4.16-7.68C1294.15,627.34,1294.69,630.36,1294.51,633.76Z" transform="translate(-49.46 -34.12)"/><path class="cls-5" d="M1290.59,626.42c-3-1.72-4-4.47-4.16-7.73C1290.44,619.85,1290.92,622.92,1290.59,626.42Z" transform="translate(-49.46 -34.12)"/><path class="cls-5" d="M1298.53,640.87a8.24,8.24,0,0,1-4.2-7.37C1297.71,634.83,1298.45,637.66,1298.53,640.87Z" transform="translate(-49.46 -34.12)"/><path class="cls-5" d="M1216.47,498l3.36,3.93-1.08,1.08c-2.48-.64-4.12-1.77-2.7-4.67Z" transform="translate(-49.46 -34.12)"/><path class="cls-5" d="M1515.18,1360.54a4.77,4.77,0,0,1,4.22-4.1A4.68,4.68,0,0,1,1515.18,1360.54Z" transform="translate(-49.46 -34.12)"/><path class="cls-5" d="M1511.5,1364.37a4.77,4.77,0,0,1,4.09-4.24A4.71,4.71,0,0,1,1511.5,1364.37Z" transform="translate(-49.46 -34.12)"/><path class="cls-5" d="M397.78,539.68a5.08,5.08,0,0,1-2.8,4.94Z" transform="translate(-49.46 -34.12)"/><path class="cls-5" d="M401.87,532a5.67,5.67,0,0,1-3.08,5.4A6.38,6.38,0,0,1,401.87,532Z" transform="translate(-49.46 -34.12)"/><path class="cls-5" d="M131.88,1001a6,6,0,0,1-3.15,5.5A6.36,6.36,0,0,1,131.88,1001Z" transform="translate(-49.46 -34.12)"/><path class="cls-5" d="M127.77,1008.54a4,4,0,0,1-2.82,4.4A4.81,4.81,0,0,1,127.77,1008.54Z" transform="translate(-49.46 -34.12)"/><path class="cls-5" d="M229.45,832.18a4.45,4.45,0,0,1-3.17,4.56A5.24,5.24,0,0,1,229.45,832.18Z" transform="translate(-49.46 -34.12)"/><path class="cls-5" d="M214.32,858.38c.07,2.22-.73,3.9-2.95,4.68A5.23,5.23,0,0,1,214.32,858.38Z" transform="translate(-49.46 -34.12)"/><path class="cls-5" d="M1305.64,652.81a4.15,4.15,0,0,1-3.05-4.39Q1304.11,650.63,1305.64,652.81Z" transform="translate(-49.46 -34.12)"/><path class="cls-5" d="M1021.44,160.32l3.35,4-.93.95c-2.58-.51-4.29-1.55-2.78-4.55Z" transform="translate(-49.46 -34.12)"/><path class="cls-5" d="M1320.72,679a4.32,4.32,0,0,1-3.2-4.44Z" transform="translate(-49.46 -34.12)"/><path class="cls-5" d="M102.46,1341.46a4.82,4.82,0,0,1,3.64,4.42A5.14,5.14,0,0,1,102.46,1341.46Z" transform="translate(-49.46 -34.12)"/><path class="cls-5" d="M1301.84,646.39a6.65,6.65,0,0,1-3.31-5.53A6.37,6.37,0,0,1,1301.84,646.39Z" transform="translate(-49.46 -34.12)"/><path class="cls-5" d="M987.41,111.88l3.61,3.65-1,1.11c-2.37-.23-3.6-1.5-3.55-3.92Z" transform="translate(-49.46 -34.12)"/><path class="cls-5" d="M1201.37,471.79l3.45,3.83-1,1.06c-2.5-.51-4-1.68-2.93-4.49Z" transform="translate(-49.46 -34.12)"/><path class="cls-5" d="M683,81.49l3.88-3.43.57.5c.16,3-.87,4.53-4.11,3.32Z" transform="translate(-49.46 -34.12)"/><path class="cls-5" d="M1403.21,822.09a5.91,5.91,0,0,1-3.21-5A6.18,6.18,0,0,1,1403.21,822.09Z" transform="translate(-49.46 -34.12)"/><path class="cls-5" d="M117,1027.22a6.21,6.21,0,0,1-3.22,5.52A6.37,6.37,0,0,1,117,1027.22Z" transform="translate(-49.46 -34.12)"/><path class="cls-5" d="M1407.09,828.87a3.68,3.68,0,0,1-2.79-4.08Z" transform="translate(-49.46 -34.12)"/><path class="cls-5" d="M600.8,179.29c1.13-1.3,2.25-2.6,3.38-3.89l.44.35c1.46,3-.26,4-2.8,4.55Z" transform="translate(-49.46 -34.12)"/><path class="cls-5" d="M112.87,1034.77a3.94,3.94,0,0,1-3,4.37A5,5,0,0,1,112.87,1034.77Z" transform="translate(-49.46 -34.12)"/><path class="cls-5" d="M495.72,367a6,6,0,0,1-3.14,5.61A6.53,6.53,0,0,1,495.72,367Z" transform="translate(-49.46 -34.12)"/><path class="cls-5" d="M491.67,374.62c.07,2.12-.69,3.73-2.8,4.51C489.8,377.62,490.74,376.12,491.67,374.62Z" transform="translate(-49.46 -34.12)"/><path class="cls-6" d="M683.32,81.88c1.91-.44,3.5-1.27,4.11-3.32a49.93,49.93,0,0,0,6.75-2.87c70.76-42.54,144.05-46.28,219.7-14.48,2.83,1.19,5.79,2,8.69,3.06,5.47,5.13,12.27,8,19,11a19.49,19.49,0,0,0,11.3,7.43l33.59,30.05a4.45,4.45,0,0,0,3.55,3.92c4,7,8.72,13.51,15.23,18.49a19.8,19.8,0,0,0,7.4,11.33,36.45,36.45,0,0,0,8.47,14.22,4.51,4.51,0,0,0,2.78,4.55c.13,3.11,1.28,5.63,4.19,7.1a8.47,8.47,0,0,0,4,7.27,8.32,8.32,0,0,0,4,7.33c4.64,11,10.16,21.52,17.81,30.79A81.77,81.77,0,0,0,1069,243.9a78.08,78.08,0,0,0,15.2,26.09c2.42,7,5.66,13.61,10.94,19a8.41,8.41,0,0,0,4.36,7c2.2,7.18,5.15,13.92,11,19,.12,3.09,1.22,5.65,4,7.29a17.35,17.35,0,0,0,6.9,11.79c.33,3,1.24,5.64,4.09,7.19.14,3.08,1.09,5.73,4,7.29a19.56,19.56,0,0,0,6.89,11.79c8,19.57,20.09,36.89,30.48,55.14,4.53,8,7.54,17.08,15,23.24,2.13,7.22,5,14,11.09,18.9,0,3.12,1,5.74,3.94,7.33a8.27,8.27,0,0,0,4,7.28,4.14,4.14,0,0,0,2.93,4.49c.31,3,1.22,5.63,4,7.2.14,3.1,1.14,5.71,4.06,7.25a8.29,8.29,0,0,0,4.16,7.17,4.45,4.45,0,0,0,2.7,4.67c.42,2.92,1.11,5.69,4,7.24,2.46,7,5.77,13.57,11,19l16.4,32.25q1.29,2.14,2.61,4.26a3.45,3.45,0,0,1,1.35,3.13c1.4,4.27-.83,5.2-4.46,4.86l-.09-.18c-.76-1.79-2.31-2.73-3.89-3.64-12.8-10.87-25.67-21.55-40.11-30.36-27-16.47-56.19-26.25-87.41-30.45C1035.26,498,966.42,525.22,910,585.59c-13.65,14.6-23.68,32-33.59,49.26-18.25,31.86-36.28,63.85-54.4,95.78-.62,1.33-1.34,1.83-2.17,1.53s-1.32-.69-1.32-1.08c-12.9-21.3-26.28-42.3-37.92-64.37-9.88-18.73-20.88-36.87-31.5-55.19-7.18-12.39-14.78-24.54-21.82-37-21.16-37.41-42.13-74.92-64.86-111.43-8.22-13.21-15.13-27.24-22.71-40.86-5.45-9.8-10.55-19.84-16.64-29.23-15.13-23.35-23.84-49.13-30.75-75.8A83.25,83.25,0,0,1,589.58,297c-.08-7.46.43-14.93-2.49-22.19-1.08-2.69-1.42-6.58-.29-9.12,5.56-12.46.67-26,5-38.76,4-11.73,6.11-24.08,9-36.17a17.9,17.9,0,0,0,.09-3.74v0a51.8,51.8,0,0,0,7.06-12.07q.38-3.22.77-6.45a8.24,8.24,0,0,0,3.89-7.37c1.66-1.8,3.72-3.37,4.91-5.45,14.15-24.54,32.7-45.32,54.1-63.7a71.28,71.28,0,0,0,5.09-5.33C679.69,86.17,681.61,84.18,683.32,81.88Z" transform="translate(-49.46 -34.12)"/><path class="cls-7" d="M818.47,731.08c1.16-.17,2.33-.31,3.49-.44-.13,12.63,7.42,22.36,13,32.57,12,21.81,24.88,43.14,37.48,64.62,11,18.8,22.22,37.49,33.2,56.32,15.36,26.36,30.58,52.8,45.88,79.19,10.31,17.78,20.4,35.69,31,53.26,15.52,25.63,30.28,51.71,42.28,79.12,10.24,23.38,19.57,47.74,21.51,73.16,2.32,30.28,3.8,61.09-5,91a53.08,53.08,0,0,0-1.83,14.77l0,.08c-2.24,2-1.23,5.57-3.78,7.36a317,317,0,0,1-23.77,42.1c-33.55,50.38-79.87,82.29-138.33,97-7.19,1.81-14.32,3.87-21.48,5.82-26.77.42-53.54,1.13-80.31,1.21q-163.59.45-327.18.59c-35.52.06-71.05.21-106.57.2-6.2,0-12.4-.57-18.6-.88,1.58-.93,3.09-2.52,4.76-2.71,36.89-4.25,68.82-20.07,98.39-41.64,30.27-22.07,53.89-49.67,69.73-83.66,3.4-7.3,9.88-13,11-21.38,9.39-9.44,14.69-21.65,21.32-32.81,17.85-30,34.42-60.8,51.79-91.1,15.82-27.59,32.08-54.92,48-82.42,11.26-19.42,22.27-39,33.5-58.43,21.2-36.71,42.54-73.35,63.72-110.08C734,882.85,745.9,861.65,758,840.54q16.74-29.22,33.6-58.37c7.17-12.41,14.5-24.74,21.57-37.22C815.6,740.64,818.28,736.31,818.47,731.08Z" transform="translate(-49.46 -34.12)"/><path class="cls-8" d="M1245.62,569.93a4.79,4.79,0,0,1,3.89,3.64Z" transform="translate(-49.46 -34.12)"/><path class="cls-9" d="M1035.81,1282.07c.06-3.07.84-5.77,3.78-7.36C1039.73,1277.89,1038.85,1280.53,1035.81,1282.07Z" transform="translate(-49.46 -34.12)"/><path class="cls-8" d="M1252.71,565.76a4,4,0,0,1-2.61-4.26C1252,562.28,1253.05,563.6,1252.71,565.76Z" transform="translate(-49.46 -34.12)"/><path class="cls-10" d="M607.9,174.92c.73,5.83-1.77,9.77-7.06,12.07.33-2.23.65-4.46,1-6.69a4.44,4.44,0,0,0,2.8-4.55A33.49,33.49,0,0,1,607.9,174.92Z" transform="translate(-49.46 -34.12)"/></svg>