<svg id="Layer_2" data-name="Layer 2" xmlns="http://www.w3.org/2000/svg" viewBox="0 0 410.83 373.48"><defs><style>.cls-1,.cls-2,.cls-3{fill:none;stroke-miterlimit:10;stroke-width:20px;}.cls-1{stroke:blue;}.cls-2{stroke:#06f;}.cls-3{stroke:#09f;}</style></defs><title>AN-Logo-8-outline</title><path class="cls-1" d="M96.79,370.33l274.9-.16s25.43-2,37.14-20.43,11.23-29.36,9.47-41.17S407,283.91,403.11,277.12s-48.94-84.05-48.94-84.05S317,226.55,233.79,220.16s-109.7-22.48-156.48,8.19c0,0-6.71,3.83-15.05,18.11s-29.67,52.19-29.67,52.19-7.67,11.94-2.23,34.28,28.11,37.56,45.52,37.4S96.79,370.33,96.79,370.33Z" transform="translate(-18.41 -6.85)"/><path class="cls-2" d="M73.41,231.45S93.55,200.93,144,201.74s101.44,5.23,131.35-9.12S317.8,166,329.55,151.51l24.62,41.56s-38.65,33.29-116.39,27.37S117.78,195.88,73.41,231.45Z" transform="translate(-18.41 -6.85)"/><path class="cls-3" d="M183.37,36.57c44.09-47.19,101.67-.3,90.81,42.67s-51.51,40.65-51.51,40.65l-87-.52Z" transform="translate(-18.41 -6.85)"/></svg>