<svg id="Layer_2" data-name="Layer 2" xmlns="http://www.w3.org/2000/svg" viewBox="0 0 390.83 353.48"><defs><style>.cls-1{fill:blue;}.cls-2{fill:#06f;}.cls-3{fill:#09f;}</style></defs><title>AN-Logo-8</title><path class="cls-1" d="M418.3,308.57c1.76,11.81,2.24,22.7-9.47,41.17s-37.14,20.43-37.14,20.43l-274.9.16s-3.5-.16-20.91,0-40.09-15.06-45.52-37.4,2.23-34.28,2.23-34.28,21.34-37.91,29.67-52.19,15.05-18.11,15.05-18.11c46.78-30.67,73.23-14.58,156.48-8.19s120.38-27.09,120.38-27.09,45,77.26,48.94,84.05S416.54,296.77,418.3,308.57Z" transform="translate(-28.41 -16.85)"/><path class="cls-2" d="M329.55,151.51l24.62,41.56s-38.65,33.29-116.39,27.37-120-24.56-164.37,11c0,0,20.14-30.52,70.63-29.71s101.44,5.23,131.35-9.12S317.8,166,329.55,151.51Z" transform="translate(-28.41 -16.85)"/><path class="cls-3" d="M183.37,36.57c44.09-47.19,101.67-.3,90.81,42.67s-51.51,40.65-51.51,40.65l-87-.52Z" transform="translate(-28.41 -16.85)"/></svg>