<svg xmlns="http://www.w3.org/2000/svg" width="1024" height="768" viewBox="0 0 1024 768"><path fill="#E74C3C" d="M1016.118 388.982c-.188.818-.513 1.634-.54 2.458-.1 2.998-.131 6.001-.133 9.001-.008 94.293-.005 188.585-.005 282.875v4.982h-152.752c-.058-1.398-.161-2.619-.161-3.837-.008-90.041-.025-180.079.056-270.119.002-4.344.947-8.682 1.37-13.027 4.532-46.859-8.98-87.766-41.182-122.108-23.155-24.692-51.789-39.935-85.197-45.302-42.223-6.783-80.943 2.395-115.748 27.47-1.001.719-2.016 1.414-3.349 2.344-9.378-24.057-21.17-46.59-35.581-67.727-14.428-21.162-31.096-40.401-50.186-58.037.97-.81 1.736-1.544 2.594-2.152 33.655-23.908 70.632-40.32 110.945-49.24 27.403-6.062 55.154-8.301 83.107-6.518 73.938 4.717 138.167 32.394 191.979 83.322 44.015 41.657 72.848 92.314 86.759 151.356 4.687 19.892 7.477 40.036 7.47 60.518 0 1.329.36 2.659.554 3.989v9.752z"/><path fill="#2C3E50" d="M610.914 688.317c-1.63.074-2.849.182-4.066.182-99.166.009-198.333.158-297.497-.044-61.416-.125-118.471-15.996-169.679-50.292-70.218-47.022-114.141-112.142-131.402-194.991-5.67-27.214-7.269-54.774-4.974-82.458 6.096-73.549 34.736-137.039 86.262-189.904 39.215-40.232 86.287-67.266 140.634-81.571 31.094-8.183 62.759-11.254 94.779-9.165 74.205 4.838 138.605 32.792 192.378 84.159 45.771 43.723 74.904 96.944 87.717 159.019 4.801 23.257 6.537 46.76 5.904 70.467-.051 1.875-.054 3.751-.054 5.626-.003 94.665-.003 189.327-.005 283.991l.003 4.981zm-454.663-303.934c-.039 83.201 67.505 150.761 150.76 151.079 81.266.311 151.201-65.053 151.351-150.771.149-85.345-69.131-151.175-150.855-151.298-83.149-.123-151.215 67.653-151.256 150.99z"/></svg>