<svg xmlns="http://www.w3.org/2000/svg" width="1024" height="768" viewBox="0 0 1024 768"><path opacity=".5" enable-background="new" d="M381.394 281.19v218.098c0 1.597 1.234 2.891 2.77 2.891h.029l-.06.361c-2.077 12.525 3.704 24.417 18.336 26.133 15.565 1.838 51.544 3.794 79.032.604 4.095-.482 8.009-2.138 11.411-4.547l.061-.03 5.419-3.611 343.225-.394s35.106-8.249 34.563-45.492v-3.884h2.649l-.451-146.292c0-.332-.271-.603-.603-.572h-.029c-.571.059-1.114-.393-1.175-.994l-.301-2.831c-.059-.601.331-1.174.904-1.294h.03c1.384-.272 2.347-1.566 2.286-3.042l-.51-8.279c-.092-1.566-1.477-2.711-2.952-2.439h-.029c-.212.03-.392-.121-.422-.331-.242-3.132-1.806-23.666-3.191-33.269-.241-1.566.963-2.952 2.469-2.86l9.454.541c1.354.06 2.468-1.054 2.468-2.438v-.031c0-.631-.48-1.176-1.084-1.266l-10.326-1.083c-1.808-.179-3.281-1.504-3.764-3.311-1.114-4.185-3.342-12.104-6.022-19.45-3.13-8.49-9.964-14.932-18.364-17.402-19.089-5.629-56.423-17.975-65.543-30.77-1.688-2.349-3.343-4.727-5.18-6.985-2.378-2.921-5.479-7.105-8.1-11.833-6.954-12.585-15.746-23.936-25.711-34.051l-4.817-4.877c-6.383-6.474-14.934-10.086-23.846-10.086h-59.069c-11.624 0-22.731 4.997-30.71 13.818l-16.169 17.884c-3.402 3.763-6.293 7.979-8.579 12.555-5.088 10.146-18.277 30.137-44.351 32.998 0 0-95.982 9.544-127.293 15.596-5.3 1.023-10.026 4.064-13.248 8.551l-.06.09c-1.054 1.445-2.409 2.618-4.004 3.373-4.938 2.377-16.951 10.114-25.622 31.462-2.347 5.962-3.521 12.346-3.521 18.789z"/><path fill="#303030" d="M393.437 275.771v218.099c0 1.597 1.234 2.891 2.77 2.891h.029l-.06.361c-2.078 12.525 3.704 24.417 18.335 26.133 15.566 1.838 51.543 3.794 79.031.604 4.096-.482 8.009-2.138 11.412-4.547l.059-.03 5.419-3.614 343.227-.391s35.104-8.249 34.562-45.492v-3.884h2.649l-.449-146.292c0-.333-.272-.604-.604-.573h-.031c-.572.06-1.113-.393-1.174-.994l-.302-2.831c-.06-.601.334-1.173.903-1.293h.031c1.386-.272 2.349-1.566 2.289-3.042l-.513-8.279c-.09-1.566-1.477-2.71-2.95-2.439h-.03c-.21.031-.393-.12-.422-.331-.24-3.131-1.807-23.665-3.19-33.268-.24-1.566.963-2.952 2.468-2.862l9.454.543c1.354.06 2.469-1.054 2.469-2.44v-.029c0-.634-.481-1.176-1.083-1.266l-10.327-1.083c-1.807-.18-3.283-1.506-3.765-3.311-1.114-4.185-3.341-12.104-6.021-19.45-3.132-8.49-9.966-14.934-18.366-17.402-19.089-5.631-56.421-17.975-65.544-30.771-1.687-2.348-3.342-4.726-5.178-6.985-2.38-2.92-5.48-7.106-8.1-11.832-6.956-12.585-15.745-23.936-25.713-34.051l-4.816-4.879c-6.384-6.473-14.934-10.086-23.846-10.086h-59.071c-11.621 0-22.73 4.998-30.708 13.82l-16.168 17.884c-3.403 3.763-6.294 7.979-8.582 12.555-5.087 10.146-18.273 30.137-44.348 32.998 0 0-95.983 9.544-127.295 15.596-5.298 1.023-10.027 4.064-13.246 8.55l-.061.091c-1.053 1.445-2.409 2.619-4.004 3.371-4.938 2.379-16.951 10.116-25.622 31.464-2.345 5.96-3.518 12.343-3.518 18.787z"/><path fill="#707070" d="M797.358 186.832l-4.815 11.501 65.664 25.803 4.576-9.936c1.867-4.065.812-8.971-2.62-11.772-2.167-1.776-5.237-3.913-9.634-6.443-9.364-5.419-19.389-9.513-29.746-12.313-5.329-1.445-9.996-2.981-13.97-3.131-4.064-.182-7.828 2.377-9.455 6.291z"/><path fill="#3F3F3F" d="M796.908 189.06l-4.274 8.099 64.339 28.242 3.915-6.745c2.317-4.004 1.925-9.243-1.177-12.616-.148-.15-.269-.3-.42-.42-2.018-1.958-3.312-2.65-8.702-5.932-9.272-5.63-19.117-10.146-29.354-13.488-4.605-1.506-8.882-2.801-12.586-3.312-4.756-.692-9.421 1.777-11.741 6.172z"/><path fill="#353535" d="M811.301 206.974l10.355-23.002-2.649-.722-10.507 22.34 2.801 1.384zm8.971 2.921l10.355-23.033-2.77-.993-10.355 22.61 2.77 1.416zm-17.281-5.269l10.325-23.002-2.799-.632-10.327 22.219 2.801 1.415zm34.111 11.862l10.086-22.37-2.498-1.295-10.389 22.249 2.801 1.416zm8.309 4.968l10.086-22.429-2.498-1.597-10.389 22.611 2.801 1.415zm-16.319-8.4l10.418-22.701-2.619-1.144-10.568 22.46 2.769 1.385z"/><path fill="#1E1E1E" d="M797.209 188.428c-.301.211-1.205 2.168-1.385 2.468l-3.222 6.232 64.34 28.241 4.666-8.069c-26.704-10.386-53.349-19.9-64.399-28.872z"/><path fill="#303030" d="M393.437 275.771v218.099c0 1.597 1.234 2.891 2.77 2.891h.029l-.06.361c-2.078 12.525 3.704 24.417 18.335 26.133 15.566 1.838 51.543 3.794 79.031.604 4.096-.482 8.009-2.138 11.412-4.547l.059-.03 5.419-3.614 343.227-.391s35.104-8.249 34.562-45.492v-3.884h2.649l-.449-146.292c0-.333-.272-.604-.604-.573h-.031c-.572.06-1.113-.393-1.174-.994l-.302-2.831c-.06-.601.334-1.173.903-1.293h.031c1.386-.272 2.349-1.566 2.289-3.042l-.513-8.279c-.09-1.566-1.477-2.71-2.95-2.439h-.03c-.21.031-.393-.12-.422-.331-.24-3.131-1.807-23.665-3.19-33.268-.24-1.566.963-2.952 2.468-2.862l9.454.543c1.354.06 2.469-1.054 2.469-2.44v-.029c0-.634-.481-1.176-1.083-1.266l-10.327-1.083c-1.807-.18-3.283-1.506-3.765-3.311-1.114-4.185-3.341-12.104-6.021-19.45-3.132-8.49-9.966-14.934-18.366-17.402-19.089-5.631-56.421-17.975-65.544-30.771-1.687-2.348-3.342-4.726-5.178-6.985-2.38-2.92-5.48-7.106-8.1-11.832-6.956-12.585-15.745-23.936-25.713-34.051l-4.816-4.879c-6.384-6.473-14.934-10.086-23.846-10.086h-59.071c-11.621 0-22.73 4.998-30.708 13.82l-16.168 17.884c-3.403 3.763-6.294 7.979-8.582 12.555-5.087 10.146-18.273 30.137-44.348 32.998 0 0-95.983 9.544-127.295 15.596-5.298 1.023-10.027 4.064-13.246 8.55l-.061.091c-1.053 1.445-2.409 2.619-4.004 3.371-4.938 2.379-16.951 10.116-25.622 31.464-2.345 5.96-3.518 12.343-3.518 18.787z"/><path d="M510.434 515.666l-5.419 3.614-.059.03c-3.403 2.439-7.316 4.095-11.41 4.547-27.49 3.19-63.467 1.203-79.033-.604-11.983-1.415-18.035-9.634-18.667-19.45l463.477 9.544c-3.372 1.417-5.63 1.928-5.63 1.928l-343.259.391z" fill="none"/><path fill="#232323" d="M788.718 480.621c23.154-39.742 59.976-124.885 15.115-209.699-3.401-6.443-5.96-13.308-7.438-20.503-3.1-15.115-6.685-40.736-.541-59.492-.813-.814-1.506-1.626-2.107-2.469-1.687-2.349-3.342-4.728-5.178-6.985-2.38-2.92-5.48-7.105-8.101-11.833-6.955-12.585-15.746-23.935-25.712-34.051l-4.815-4.878c-6.385-6.473-14.935-10.085-23.846-10.085h-59.072c-11.621 0-22.729 4.998-30.708 13.819l-16.168 17.884c-3.403 3.764-6.294 7.979-8.581 12.555-5.088 10.146-18.274 30.138-44.349 32.998 0 0-6.773.662-17.312 1.776 9.664 12.857 20.322 29.355 25.622 45.402 3.522 10.658 3.222 22.31-.513 32.909-11.201 31.913-40.555 137.32 27.939 213.042l.119.121c4.156 4.905.813 12.614-5.449 12.614h-201.81c.662 9.813 6.684 18.063 18.666 19.45 15.566 1.835 51.545 3.792 79.033.601 4.094-.482 8.009-2.139 11.411-4.547l.061-.03 5.419-3.612 343.225-.392s2.259-.542 5.631-1.926l-58.108-6.475c-12.102-1.294-18.785-15.326-12.433-26.194z"/><path fill="#383838" d="M640.561 191.74c19.116 2.588 60.215 6.292 108.295-.572 4.517-.632 7.889-4.667 7.859-9.424-.062-8.881.691-23.574 5.33-36.911-2.35-2.86-4.788-5.63-7.318-8.34l-4.816-5.179c-6.384-6.834-14.934-10.688-23.846-10.688h-59.071c-11.621 0-22.73 5.299-30.708 14.663l-10.177 11.952c1.114 12.616 2.919 19.961 3.161 31.523.181 6.623 4.997 12.132 11.291 12.976z"/><path fill="#1C1C1C" d="M495.291 491.069c5.268 0 9.604-4.337 9.814-9.814l.421-11.02c-.27-5.299.333-9.244 1.234-12.135 1.897-6.05 10.327-5.84 11.862.331.482 1.928.482 3.464.482 3.464v24.175c0 2.771 2.139 4.999 4.787 4.999h53.291c5.629 0 9.604-5.781 7.738-11.353l-7.258-21.916c-.783-2.408-2.98-4.005-5.419-3.975h-.511c-20.896-.241-33.089-24.176-21.378-42.211 2.531-3.885 5.479-6.924 7.829-9.031 2.318-2.079 3.222-5.36 2.408-8.431-8.941-32.757 4.215-94.689 11.441-123.894 2.017-8.099-3.885-16.016-11.924-16.016h-25.65c-4.729 0-9.484 1.173-13.489 3.823-4.336 2.86-11.893 2.469-14.963 2.168-1.053-.089-2.077-.151-3.132-.182l-106.761-.722c-1.837 5.268-2.739 10.838-2.739 16.439v215.299h101.917z"/><path d="M885.333 264.239h11.051l-9.454-.543c-.604-.029-1.145.182-1.597.543z" fill="none"/><path fill="#1C1C1C" d="M873.381 260.808l-1.294-1.476c-2.861-3.252-6.895-5.088-11.11-5.088h-36.521c-3.732 0-6.533 3.582-5.78 7.406l11.5 58.68c.813 4.185 3.554 7.737 7.347 9.364 9.455 4.063 26.887 15.143 26.887 41.307 0 0 0 30.318-29.535 45.915-2.167 1.144-3.885 3.071-4.878 5.389l-28.029 66.268c-3.042 7.165 1.987 15.204 9.482 15.232 17.794.093 46.697-.301 65.967-3.16 6.111-6.896 10.959-16.829 10.779-30.83v-3.884h2.648l-.451-146.293c0-.332-.271-.602-.604-.571h-.029c-.571.059-1.112-.393-1.175-.994l-.301-2.831c-.061-.603.331-1.173.904-1.294h.028c1.387-.271 2.349-1.566 2.29-3.042l-.513-8.279c-.091-1.566-1.475-2.711-2.95-2.439h-.03c-.212.029-.392-.12-.422-.331-.24-3.131-1.807-23.666-3.19-33.271-.121-.932.24-1.805.903-2.318h-4.456c-2.8-.029-5.539-1.293-7.467-3.46z"/><path fill="#3A3A3A" d="M885.333 265.775"/><path fill="#3A3A3A" d="M873.863 262.402l-1.234-1.445c-2.741-3.191-6.595-4.998-10.659-4.998h-34.954c-3.583 0-6.264 3.493-5.539 7.226l11.019 57.445c.782 4.095 3.402 7.557 7.045 9.185 9.033 4.002 25.742 14.842 25.742 40.433 0 0 0 29.688-28.271 44.951-2.077 1.114-3.734 3.011-4.667 5.268l-26.856 64.853c-2.891 7.016 1.897 14.874 9.062 14.933 17.043.092 46.578.393 65.033-2.408 5.871-6.773 8.671-17.13 8.491-30.86v-3.823h2.56l-.452-143.22c0-.331-.271-.603-.571-.572h-.031c-.572.059-1.053-.393-1.114-.994l-.3-2.77c-.062-.603.331-1.145.872-1.265h.03c1.325-.27 2.258-1.535 2.167-2.95l-.482-8.129c-.09-1.536-1.414-2.649-2.829-2.408h-.03c-.21.028-.391-.121-.391-.332-.241-3.072-2.048-23.123-3.07-32.546-.423-3.764-3.403-2.288-3.403-2.288-2.711.087-5.301-1.148-7.168-3.286z"/><path fill="#303030" d="M888.976 267.911"/><path fill="#444" d="M494.057 491.069c5.208 0 9.482-4.306 9.695-9.756l.421-10.927c-.272-5.271.332-9.186 1.235-12.045 1.897-5.991 10.207-5.809 11.71.301.482 1.928.482 3.433.482 3.433v24.026c0 2.739 2.107 4.968 4.727 4.968h52.629c5.57 0 9.482-5.751 7.646-11.26l-7.167-21.769c-.78-2.378-2.949-3.974-5.328-3.944h-.512c-20.623-.239-32.696-23.995-21.105-41.909 2.5-3.854 5.419-6.895 7.738-8.973 2.288-2.048 3.192-5.329 2.379-8.37-8.821-32.517 4.184-94.025 11.32-123.019 1.986-8.068-3.824-15.897-11.772-15.897h-25.351c-4.666 0-9.364 1.175-13.308 3.794-4.275 2.831-11.771 2.469-14.783 2.169-1.024-.09-2.048-.151-3.101-.151l-105.467-.722c-1.807 5.237-2.709 10.748-2.709 16.319v213.763h100.62v-.031z"/><path fill="#181919" d="M819.489 338.334l-5.54 54.523 6.533 3.493c3.974 2.108 8.792 1.597 12.193-1.444 4.546-4.035 10.116-11.169 12.163-22.701.482-2.651.572-5.329.331-8.009-.48-5.27-1.956-14.753-6.713-22.641-2.107-3.494-5.962-5.299-9.815-4.667l-9.152 1.446z"/><path fill="#6A6D6D" d="M819.307 339.989l-5.268 52.057 6.202 3.312c3.764 2.018 8.31 1.505 11.562-1.414 4.305-3.855 9.575-10.659 11.532-21.679.45-2.529.541-5.088.3-7.647-.451-5.029-1.866-14.09-6.322-21.617-1.988-3.343-5.661-5.029-9.303-4.457l-8.703 1.445z"/><path fill="#3D3D3D" d="M818.827 341.735l-4.517 50.431 6.082 3.161c3.674 1.896 8.099 1.386 11.23-1.505 4.123-3.794 9.211-10.448 10.987-21.136.392-2.439.452-4.937.211-7.406-.481-4.847-1.987-13.608-6.413-20.834-1.986-3.221-5.57-4.818-9.123-4.186l-8.457 1.475z"/><path fill="#3F3F3F" d="M713.872 262.312c47.99-1.083 86.378 40.133 86.378 40.133l-13.608-44.499c-12.796-47.991-45.583-31.913-45.583-31.913-63.196 15.987-113.565-12.014-113.565-12.014-11.381-3.432-21.527 1.205-29.234 7.376-20.564 35.767-25.141 96.585-25.141 96.585h21.406c31.041-59.582 119.347-55.668 119.347-55.668z"/><path fill="#2F2F30" d="M761.17 199.839c-4.455-2.018-9.453-2.438-14.181-1.204-25.349 6.684-94.387 1.385-116.545-.542-6.323-.542-12.645 1.325-17.674 5.359-5.57 4.486-10.358 10.688-14.512 17.914 7.737-6.172 17.854-10.808 29.234-7.376 0 0 50.369 28.03 113.565 12.013 0 0 32.787-16.047 45.583 31.915l13.608 44.499s-38.388-41.218-86.378-40.135c0 0-88.306-3.912-119.348 55.64h215.3c-8.91-87.523-34.17-111.55-48.652-118.083z"/><ellipse fill="#B0B4BB" cx="692.646" cy="356.519" rx="129.041" ry="134.551"/><ellipse fill="#7C7E7F" cx="692.646" cy="356.519" rx="127.686" ry="133.135"/><ellipse fill="#B0B4BB" cx="692.646" cy="356.519" rx="126.361" ry="131.75"/><ellipse fill="#59595B" cx="692.646" cy="356.518" rx="123.681" ry="128.981"/><ellipse fill="#252426" cx="692.646" cy="356.518" rx="108.898" ry="113.566"/><ellipse fill="#2E2932" cx="692.646" cy="356.518" rx="106.762" ry="111.338"/><ellipse fill="#3F3C42" cx="692.646" cy="356.519" rx="101.703" ry="106.039"/><ellipse fill="#252426" cx="692.646" cy="356.519" rx="98.242" ry="102.426"/><ellipse fill="#3F3C42" cx="692.646" cy="356.519" rx="96.646" ry="100.771"/><ellipse fill="#252426" cx="692.646" cy="356.518" rx="94.538" ry="98.572"/><ellipse fill="#5B5860" cx="692.646" cy="356.519" rx="89.66" ry="93.514"/><ellipse fill="#403F44" cx="692.646" cy="356.519" rx="87.794" ry="91.557"/><ellipse fill="#5B5860" cx="692.646" cy="356.519" rx="86.47" ry="90.172"/><ellipse fill="#403F44" cx="692.646" cy="356.519" rx="85.746" ry="89.388"/><ellipse fill="#5B5860" cx="692.646" cy="356.518" rx="84.421" ry="88.035"/><ellipse fill="#403F44" cx="692.646" cy="356.518" rx="82.104" ry="85.596"/><ellipse fill="#5B5860" cx="692.646" cy="356.519" rx="80.838" ry="84.301"/><ellipse fill="#403F44" cx="692.646" cy="356.519" rx="78.881" ry="82.254"/><ellipse fill="#5B5860" cx="692.646" cy="356.519" rx="77.678" ry="80.989"/><ellipse fill="#403F44" cx="692.646" cy="356.518" rx="75.901" ry="79.153"/><ellipse fill="#5B5860" cx="692.646" cy="356.518" rx="74.757" ry="77.948"/><ellipse fill="#3F3C42" cx="692.646" cy="356.519" rx="72.8" ry="75.901"/><ellipse fill="#494351" cx="692.646" cy="356.519" rx="66.929" ry="69.79"/><ellipse fill="#18191B" cx="692.646" cy="356.518" rx="62.504" ry="65.183"/><ellipse fill="#6D415E" cx="692.646" cy="356.519" rx="49.587" ry="51.694"/><ellipse fill="#46395B" cx="692.646" cy="356.519" rx="35.979" ry="37.514"/><path fill="#545B7A" d="M717.425 356.368c.09 14.272-10.959 25.924-24.628 26.014-13.7.09-24.869-11.41-24.959-25.683-.092-14.27 10.958-25.922 24.628-26.012 13.698-.092 24.868 11.411 24.959 25.681z"/><ellipse fill="#7696A8" cx="728.624" cy="356.519" rx="12.795" ry="21.496"/><path fill="#6D415E" d="M642.245 317.95c-5.088 3.976 39.712-43.685 95.531-6.472 0 0-16.288-21.437-50.067-19.932-13.73.633-33.15 9.123-45.464 26.404z"/><ellipse fill="#D1C0BD" cx="649.802" cy="360.553" rx="17.553" ry="17.462"/><ellipse opacity=".59" fill="#404059" enable-background="new" cx="692.646" cy="356.518" rx="62.504" ry="65.183"/><path fill="#B2B2D1" d="M731.816 356.549c-3.343-.03-5.992-3.553-5.962-7.859.028-4.305 2.77-7.768 6.112-7.737 3.342.031 5.991 3.553 5.961 7.857-.03 4.307-2.77 7.768-6.111 7.739z"/><path fill="#EDE1D3" d="M656.097 360.192c.301 3.462-2.019 6.502-5.15 6.803-3.131.302-5.932-2.288-6.201-5.751-.303-3.462 2.018-6.502 5.147-6.802 3.131-.303 5.901 2.287 6.204 5.75z"/><path fill="#D3E4EA" d="M691.472 382.923s17.582-.542 23.815-15.928c0 .001-4.064 19.45-23.815 15.928z"/><path fill="#545456" d="M571.704 414.688l9.937 21.496c.752 1.595.42 3.521-.814 4.756l-1.113 1.146c-6.293 6.443-16.047 7.858-23.545 3.009-2.648-1.716-4.998-4.185-6.443-7.706-2.498-6.112-1.204-13.188 2.951-18.216l.119-.151c3.283-3.943 7.919-6.381 12.887-6.772l1.748-.12c1.834-.153 3.52.871 4.273 2.558z"/><path fill="#181919" d="M571.042 416.222l8.941 19.358c.663 1.445.392 3.162-.723 4.306l-1.023 1.023c-5.661 5.781-14.451 7.076-21.196 2.711-2.377-1.535-4.517-3.764-5.811-6.956-2.258-5.509-1.084-11.862 2.65-16.409l.121-.148c2.948-3.554 7.104-5.75 11.621-6.082l1.595-.12c1.596-.093 3.131.811 3.825 2.317z"/><path fill="#545456" d="M570.348 417.577l7.979 17.522c.604 1.325.331 2.859-.632 3.885l-.902.932c-5.027 5.239-12.856 6.384-18.849 2.438-2.138-1.415-4.004-3.432-5.177-6.292-2.019-4.967-.993-10.748 2.349-14.842l.119-.121c2.62-3.222 6.324-5.209 10.326-5.511l1.417-.119c1.414-.119 2.738.722 3.37 2.108z"/><path fill="#232323" d="M517.601 486.102v-24.026s0-1.536-.482-3.433c-1.534-6.109-9.845-6.322-11.71-.301-.903 2.859-1.507 6.774-1.235 12.045l-.421 10.927c-.182 4.487-3.103 8.189-7.046 9.365l23.997.059c-1.84-.693-3.103-2.498-3.103-4.636zm15.837-216.895c7.074-3.704 15.715-8.581 22.22-13.308h-22.883c-4.666 0-9.364 1.174-13.308 3.794-4.276 2.829-11.771 2.468-14.783 2.167-1.024-.09-2.046-.151-3.101-.151l-45.432-.301 1.114 4.698c2.016 8.551 9.362 14.542 17.823 14.542h.361c11.742 0 21.255 9.935 21.255 22.159v187.9c3.943-1.173 6.864-4.877 7.044-9.362l.423-10.93c-.272-5.268.332-9.183 1.235-12.043 1.895-5.99 10.207-5.812 11.71.301.482 1.928.482 3.433.482 3.433v24.026c0 2.137 1.294 3.943 3.102 4.668v-199.946c-.028-9.184 4.909-17.553 12.738-21.647z"/><ellipse fill="#1C1C1C" cx="540.873" cy="291.365" rx="10.87" ry="11.321"/><path fill="#3A3A3A" d="M550.298 291.427c-.032 5.419-4.275 9.784-9.485 9.755-5.209-.03-9.394-4.487-9.332-9.906.029-5.419 4.274-9.786 9.483-9.755 5.178.059 9.364 4.485 9.334 9.906z"/><path fill="#9E4D54" d="M545.571 291.396c-.03 2.709-2.139 4.877-4.729 4.877-2.588 0-4.695-2.228-4.667-4.938.031-2.709 2.139-4.877 4.728-4.877 2.619 0 4.697 2.228 4.668 4.938z"/><ellipse fill="#1C1C1C" cx="450.22" cy="319.004" rx="9.604" ry="11.923"/><ellipse fill="#3A3A3A" cx="450.22" cy="319.005" rx="8.34" ry="10.358"/><path fill="#424244" d="M502.667 233.77c4.186-19.057-12.584-19.69-16.981-19.509-.993.031-2.016.031-3.011 0-23.152-.783-41.517 2.559-55.066 6.685-.3.39-.633.782-.903 1.173l-.059.091c-1.055 1.445-2.41 2.619-4.004 3.372-4.908 2.38-16.922 10.086-25.562 31.312h69.609c31.189-.032 35.977-23.124 35.977-23.124z"/><path fill="#232323" d="M481.26 242.261c-8.159 4.667-17.312 3.643-20.413-2.29-3.101-5.93.993-14.511 9.153-19.178 8.158-4.667 17.312-3.643 20.413 2.289 3.102 5.931-.962 14.512-9.153 19.179z"/><path fill="#424245" d="M479.455 240.333c-7.649 4.367-16.018 3.732-18.728-1.415-2.708-5.149 1.296-12.855 8.943-17.222 7.647-4.366 16.016-3.733 18.727 1.415 2.707 5.15-1.295 12.827-8.942 17.222z"/><path fill="#7C7C82" d="M478.431 232.204l7.678 2.41c2.98-3.855 4.004-8.219 2.288-11.532-.844-1.596-2.229-2.77-4.005-3.493l-7.136 8.279c-1.264 1.445-.632 3.763 1.175 4.336zm-10.358 11.02s6.112.301 10.176-2.259c0 0-2.619 4.849-10.176 2.259z"/><path fill="#474747" d="M653.444 191.71c14.845 2.589 46.788 6.292 84.152-.572 3.521-.633 6.143-4.667 6.111-9.423-.03-8.881 2.65-34.594 6.233-47.931-1.838-2.861-12.165-13.157-30.049-13.157h-45.914c-23.604 0-32.155 11.35-32.155 11.35.843 12.616 2.619 35.226 2.832 46.757.151 6.654 3.885 12.133 8.79 12.976z"/><path fill="#4F4F4F" d="M672.806 163.197c8.34 1.536 26.222 3.765 47.207-.331 1.959-.39 3.432-2.8 3.432-5.629-.028-5.299 1.476-20.714 3.494-28.693-1.023-1.716-6.806-7.857-16.86-7.857h-25.711c-13.249 0-18.036 6.774-18.036 6.774.482 7.556 1.476 21.075 1.597 28 .057 3.943 2.136 7.225 4.877 7.736z"/><path fill="#C1C1C1" d="M530.005 200.651v4.155l5.088 1.476c1.386.391 2.859.361 4.216-.09l7.104-2.409v-5.631c-.059.452-9.303-1.445-16.408 2.499z"/><path fill="#232323" d="M530.005 201.042v4.247l2.528.782c3.042.963 6.293.873 9.274-.241l4.605-1.687v-5.329c-5.479 2.38-11.682 2.56-16.407 2.228z"/><path fill="#7F7E7F" d="M535.334 200.953l.39 5.51.874.12.513-5.63h-1.777z"/><path fill="#C1C1C1" d="M497.548 204.837v4.154l5.09 1.476c1.384.391 2.86.361 4.215-.091l7.105-2.408v-5.63c-.061.421-9.305-1.475-16.41 2.499z"/><path fill="#232323" d="M497.548 205.198v4.246l2.53.783c3.04.963 6.292.873 9.273-.241l4.607-1.686v-5.329c-5.48 2.378-11.682 2.589-16.41 2.227z"/><path fill="#7F7E7F" d="M502.877 205.137l.423 5.48.873.121.48-5.601h-1.776z"/></svg>