<svg xmlns="http://www.w3.org/2000/svg" width="1024" height="768" viewBox="0 0 1024 768"><path opacity=".35" enable-background="new" d="M908.344 575.416h-503.361c-8.66 0-15.666-6.627-15.666-14.822v-358.256c0-8.195 7.006-14.821 15.666-14.821h503.361c8.658 0 15.664 6.626 15.664 14.821v358.223c0 8.194-7.039 14.855-15.664 14.855z"/><path d="M917.326 571.825h-503.361c-8.66 0-15.666-6.627-15.666-14.822v-358.256c0-8.194 7.006-14.821 15.666-14.821h503.361c8.657 0 15.666 6.627 15.666 14.821v358.224c0 8.193-7.042 14.854-15.666 14.854z"/><path fill="#DDDAD7" d="M904.715 562.098h-478.175c-8.228 0-14.875-6.303-14.875-14.104v-340.269c0-7.77 6.647-14.104 14.875-14.104h478.139c8.228 0 14.875 6.301 14.875 14.104v340.302c.037 7.768-6.611 14.071-14.839 14.071z"/><path fill="#E9E8E7" d="M426.54 193.621c-8.228 0-14.875 6.301-14.875 14.104v340.302c0 7.769 6.647 14.103 14.875 14.103h239.069v-368.509h-239.069z"/><path fill="#BEBCB9" d="M735.095 193.621c15.054 13.353 34.133 37.836 31.51 112.531 0 0 .145 122.88-165.487 235.248-.898.588-2.084.555-2.91-.131l-4.957-4.017c-.864-.718-.793-1.99.141-2.611 5.141-3.297 21.989-14.919 66.542-50.471 14.839-11.85 28.994-26.934 46.958-48.903 13.834-16.942 27.233-36.563 39.45-64.28 9.486-21.577 12.396-22.525 17.391-56.053 0 0 6.969-60.982-5.211-95.064 0 0-1.223-8.684-16.132-26.28 0 0-.468-.262-2.479 0l-4.816.031z"/><path fill="#372930" d="M662.663 193h6.396s1.795-5.158 6.288-9.988c8.839-9.599 24.502-10.055 34.311-1.339 15.056 13.352 45.521 49.818 42.899 124.545 0 0 .145 122.878-165.488 235.246-.896.587-2.083.556-2.91-.131l-4.957-4.015c-.863-.719-.79-1.991.143-2.613 5.139-3.296 21.987-14.918 66.541-50.469 14.838-11.853 28.994-26.933 46.957-48.905 13.834-16.942 27.236-36.563 39.45-64.278 9.487-21.58 12.396-22.526 17.391-56.053 0 0 6.969-60.982-5.211-95.065 0 0-8.335-20.959-21.557-35.552-8.586-9.5-21.665-14.56-34.744-12.765-4.85.652-10.023 2.285-15.018 5.484-.073-.033-8.767 6.563-10.491 15.898z"/></svg>